<?xml version="1.0" encoding="utf-8"?>
<!-- Generator: Adobe Illustrator 19.1.0, SVG Export Plug-In . SVG Version: 6.00 Build 0)  -->
<svg version="1.1" id="Layer_1" xmlns="http://www.w3.org/2000/svg" xmlns:xlink="http://www.w3.org/1999/xlink" x="0px" y="0px"
	 viewBox="-33 173 571.8 136" style="enable-background:new -33 173 571.8 136;" xml:space="preserve">
<style type="text/css">
	.st0{fill:#F6BA18;}
	.st1{enable-background:new    ;}
	.st2{fill:#FFFFFF;}
</style>
<polygon class="st0" points="455.6,208.7 455.6,216 329.5,216 323.7,211.2 317.9,216 181.5,216 175.7,211.2 170,216 38.7,216 
	32.9,211.2 27.1,216 -33,216 -33,249.4 455.6,249.4 455.6,258.2 485.3,233.5 "/>
<g class="st1">
	<path class="st2" d="M19.1,181.7c1.9,0,3.4,1.2,3.4,2.9c0,2.1-1.6,2.7-2.8,3.6c-1.2,0.8-3,1.9-3,3.7h5.9v1.2h-7.1
		c0-1.7,0.1-3,1.6-4.5s4.2-2.3,4.2-4c0-1.4-0.9-1.9-2.3-1.9c-1.6,0-2.3,1.4-2.5,2.2l-1.1-0.2C15.7,183,17.2,181.7,19.1,181.7z"/>
	<path class="st2" d="M31.9,190.2c-0.2,1.5-1.1,3.1-3.6,3.1c-2.5,0-3.5-1.9-3.7-3s-0.3-4.2,0-5.6c0.3-1.8,1.7-3,3.7-3
		c2,0,3.3,1.6,3.5,3.3C32,186.6,32.1,188.7,31.9,190.2z M30.7,184.9c-0.2-0.8-0.5-2-2.3-2c-1.8,0-2.5,1.2-2.6,2.1
		c-0.2,0.9-0.3,3.4,0,4.9c0.1,0.7,0.4,2.3,2.6,2.3c1.7,0,2.3-1.4,2.5-2.3C31,188.6,31,186,30.7,184.9z"/>
	<path class="st2" d="M38.5,181.8l-3.6,11.4h-1.2l3.5-11.4H38.5z"/>
	<path class="st2" d="M39.6,181.8h7.1v0.9L42,193.2h-1.3l4.7-10.2h-5.8V181.8z"/>
</g>
<g class="st1">
	<path class="st2" d="M412.1,287.3c-0.4,2.5-2.1,3.9-4.3,3.9c-2.5,0-4.4-1.7-4.4-5.1c0-0.5,0-0.8,0-1.3c0-3.3,1.8-5.3,4.4-5.3
		c2.2,0,3.8,1.4,4.3,3.8H411c-0.4-1.7-1.5-2.6-3.2-2.6c-2.1,0-3.3,1.6-3.3,4.1v1.3c0,2.6,1.2,4,3.3,4c1.7,0,2.8-1.1,3.2-2.8H412.1z"
		/>
	<path class="st2" d="M422.5,284.7c0,0.2,0,1.1,0,1.3c0,3.2-1.8,5.1-4.4,5.1c-2.5,0-4.4-1.8-4.4-5.1c0-0.5,0-0.8,0-1.3
		c0-3.3,1.8-5.2,4.4-5.2S422.5,281.6,422.5,284.7z M414.9,284.7v1.3c0,2.5,1.2,4,3.3,4c2,0,3.3-1.5,3.3-4v-1.3
		c0-2.5-1.2-4.1-3.3-4.1C416.1,280.7,414.9,282.2,414.9,284.7z"/>
	<path class="st2" d="M433.1,291.1h-1.4l-6.1-9.8v9.8h-1.1v-11.4h1.4l6,9.8v-9.8h1.1V291.1z"/>
	<path class="st2" d="M436.5,291.1h-1.1v-11.4h7v1.2h-5.9v3.8h4.8v1.2h-4.8V291.1z"/>
	<path class="st2" d="M451.8,289.9v1.2h-7.2v-11.4h7v1.2h-5.9v3.8h4.8v1.2h-4.8v4.1H451.8z"/>
	<path class="st2" d="M460.4,291.1l-2.5-4.5c0,0,0,0,0,0c-0.1,0-2.3,0-2.9,0v4.5h-1.1v-11.4c0,0,3.7,0,4,0c2.3,0,3.7,1.6,3.7,3.4
		c0,1.5-1,2.8-2.5,3.3l2.6,4.6H460.4z M460.6,283.2c0-1.4-1.1-2.3-2.6-2.3h-2.9v4.7h2.9C459.5,285.5,460.6,284.5,460.6,283.2z"/>
	<path class="st2" d="M471.2,289.9v1.2H464v-11.4h7v1.2h-5.9v3.8h4.8v1.2h-4.8v4.1H471.2z"/>
	<path class="st2" d="M481.9,291.1h-1.4l-6.1-9.8v9.8h-1.1v-11.4h1.4l6,9.8v-9.8h1.1V291.1z"/>
	<path class="st2" d="M492.8,287.3c-0.4,2.5-2.1,3.9-4.3,3.9c-2.5,0-4.4-1.7-4.4-5.1c0-0.5,0-0.8,0-1.3c0-3.3,1.8-5.3,4.4-5.3
		c2.2,0,3.8,1.4,4.3,3.8h-1.1c-0.4-1.7-1.5-2.6-3.2-2.6c-2.1,0-3.3,1.6-3.3,4.1v1.3c0,2.6,1.2,4,3.3,4c1.7,0,2.8-1.1,3.2-2.8H492.8z
		"/>
	<path class="st2" d="M501.8,289.9v1.2h-7.2v-11.4h7v1.2h-5.9v3.8h4.8v1.2h-4.8v4.1H501.8z"/>
</g>
<g class="st1">
	<path class="st2" d="M156.2,182.4c0.3-1.1,1.2-2.5,3.4-2.5c2.4,0,3.4,1.6,3.4,3.1c0,1.5-1.2,2.5-1.5,2.5c0.4,0.2,1.8,0.8,1.8,2.8
		s-1.8,3.2-3.7,3.2c-1.9,0-3-0.7-3.7-2.6c0,0,1.1-0.4,1.1-0.4c0.3,1,0.9,1.9,2.6,1.9c1.1,0,2.5-0.7,2.5-2.1c0-1.4-0.9-2.2-2.5-2.2
		c0,0-0.3,0-0.3,0v-1c0,0,0.2,0,0.3,0c1.3,0,2.2-0.8,2.2-2.1c0-1.1-0.9-2-2.3-2c-1.7,0-2.2,1.2-2.4,1.8L156.2,182.4z"/>
	<path class="st2" d="M172.4,188.4c-0.2,1.5-1.1,3.1-3.6,3.1c-2.5,0-3.5-1.9-3.7-3s-0.3-4.2,0-5.6c0.3-1.8,1.7-3,3.7-3
		c2,0,3.3,1.6,3.5,3.3C172.5,184.8,172.5,186.9,172.4,188.4z M171.1,183.1c-0.2-0.8-0.5-2-2.3-2c-1.8,0-2.5,1.2-2.6,2.1
		c-0.2,0.9-0.3,3.4,0,4.9c0.1,0.7,0.4,2.3,2.6,2.3c1.7,0,2.3-1.4,2.5-2.3C171.4,186.8,171.4,184.2,171.1,183.1z"/>
	<path class="st2" d="M178.9,180l-3.6,11.4h-1.2l3.5-11.4H178.9z"/>
	<path class="st2" d="M180,180h7.1v0.9l-4.7,10.4h-1.3l4.7-10.2H180V180z"/>
</g>
<g class="st1">
	<path class="st2" d="M307.5,182.4c0.3-1.1,1.2-2.5,3.4-2.5c2.4,0,3.4,1.6,3.4,3.1c0,1.5-1.2,2.5-1.5,2.5c0.4,0.2,1.8,0.8,1.8,2.8
		s-1.8,3.2-3.7,3.2c-1.9,0-3-0.7-3.7-2.6c0,0,1.1-0.4,1.1-0.4c0.3,1,0.9,1.9,2.6,1.9c1.1,0,2.5-0.7,2.5-2.1c0-1.4-0.9-2.2-2.5-2.2
		c0,0-0.3,0-0.3,0v-1c0,0,0.2,0,0.3,0c1.3,0,2.2-0.8,2.2-2.1c0-1.1-0.9-2-2.3-2c-1.7,0-2.2,1.2-2.4,1.8L307.5,182.4z"/>
	<path class="st2" d="M317.8,180h1.2v11.4h-1.1v-10.2l-1.8,0.9v-1.1L317.8,180z"/>
	<path class="st2" d="M325.8,180l-3.6,11.4H321l3.5-11.4H325.8z"/>
	<path class="st2" d="M333.9,188.4c0,2.2-1.3,3.2-3.5,3.2c-2.1,0-3.7-1.2-3.7-3.1c0-2.2,1.3-2.8,1.9-3c-0.6-0.3-1.6-0.9-1.6-2.6
		c0-1.8,1.2-2.9,3.3-2.9c2.1,0,3.1,1.4,3.1,2.9c0,1.6-0.8,2.3-1.8,2.7C332.7,185.8,333.9,186.6,333.9,188.4z M332.8,188.4
		c0-1.7-1.7-2.1-3-2.4c-1.9,0.5-2.1,1.6-2.1,2.5c0,1.1,1.1,1.9,2.6,1.9C331.7,190.4,332.8,190,332.8,188.4z M328.2,182.8
		c0,1.5,1.4,2,2.3,2.2c1.5-0.2,2-1.1,2-2.2c0-1.2-0.6-1.9-2.2-1.9C328.9,180.9,328.2,181.7,328.2,182.8z"/>
</g>
<g class="st1">
	<path class="st2" d="M5.2,285.7H4L3,282.9h-5l-1.1,2.8h-1.2L0,274.4h1L5.2,285.7z M2.5,281.8L0.4,276l-2.1,5.8H2.5z"/>
	<path class="st2" d="M11.3,285.7H6.7v-11.4c0,0,1.9,0,3.6,0c1.9,0,3.6,0.9,3.6,3.1c0,1.8-1.2,2.4-1.4,2.4c0.3,0,2,0.8,2,2.8
		C14.5,283.7,13.9,285.7,11.3,285.7z M11,279.3c1.2,0,1.7-1,1.7-1.9c0-0.8-0.5-2-2.1-2c-0.9,0-2.9,0-2.9,0v3.9
		C7.8,279.3,9.8,279.3,11,279.3z M11,280.4c-1.6,0-3.2,0-3.2,0v4.2c0,0,2.1,0,3.3,0c1.5,0,2.2-0.9,2.2-2.2
		C13.4,281.4,12.6,280.4,11,280.4z"/>
</g>
<g class="st1">
	<path class="st2" d="M23.1,276.5c-0.4-0.6-1.6-1.1-2.8-1.1c-1.3,0-2.5,0.7-2.5,2.1c0,1.6,1.4,1.8,2.8,2.1c1.7,0.3,3.5,1.2,3.5,3.4
		c0,2.1-1.7,3-3.7,3c-2.3,0-3.5-1-4.3-2l0.9-0.7c1,1.3,2.1,1.7,3.4,1.7c1.6,0,2.6-0.7,2.6-1.9c0-1.7-1.6-2.2-3.5-2.5
		c-1.8-0.3-2.9-1.4-2.9-3c0.1-1.5,1.1-3.2,3.8-3.2c1.7,0,2.8,0.7,3.5,1.6L23.1,276.5z"/>
</g>
<g class="st1">
	<path class="st2" d="M33.5,275.5h-3.3v10.3h-1.1v-10.3h-3.3v-1.1h7.8V275.5z"/>
	<path class="st2" d="M42.2,285.7l-2.5-4.5c0,0,0,0,0,0c-0.1,0-2.3,0-2.9,0v4.5h-1.1v-11.4c0,0,3.7,0,4,0c2.3,0,3.7,1.6,3.7,3.4
		c0,1.5-1,2.8-2.5,3.3l2.6,4.6H42.2z M42.4,277.8c0-1.4-1.1-2.3-2.6-2.3h-2.9v4.7h2.9C41.3,280.2,42.4,279.2,42.4,277.8z"/>
</g>
<g class="st1">
	<path class="st2" d="M55,285.7h-1.2l-1.1-2.8h-5l-1.1,2.8h-1.2l4.3-11.4h1L55,285.7z M52.3,281.8l-2.1-5.8l-2.1,5.8H52.3z"/>
</g>
<g class="st1">
	<path class="st2" d="M64.8,282c-0.4,2.5-2.1,3.9-4.3,3.9c-2.5,0-4.4-1.7-4.4-5.1c0-0.5,0-0.8,0-1.3c0-3.3,1.8-5.3,4.4-5.3
		c2.2,0,3.8,1.4,4.3,3.8h-1.1c-0.4-1.7-1.5-2.6-3.2-2.6c-2.1,0-3.3,1.6-3.3,4.1v1.3c0,2.6,1.2,4,3.3,4c1.7,0,2.8-1.1,3.2-2.8H64.8z"
		/>
	<path class="st2" d="M74.2,275.5h-3.3v10.3h-1.1v-10.3h-3.3v-1.1h7.8V275.5z"/>
</g>
<g class="st1">
	<path class="st2" d="M-2.7,294.3c-0.4-0.6-1.6-1.1-2.8-1.1c-1.3,0-2.5,0.7-2.5,2.1c0,1.6,1.4,1.8,2.8,2.1c1.7,0.3,3.5,1.2,3.5,3.4
		c0,2.1-1.7,3-3.7,3c-2.3,0-3.5-1-4.3-2l0.9-0.7c1,1.3,2.1,1.7,3.4,1.7c1.6,0,2.6-0.7,2.6-1.9c0-1.7-1.6-2.2-3.5-2.5
		c-1.8-0.3-2.9-1.4-2.9-3c0.1-1.5,1.1-3.2,3.8-3.2c1.7,0,2.8,0.7,3.5,1.6L-2.7,294.3z"/>
	<path class="st2" d="M8.5,292.2c0,0.3,0,6.5,0,6.6c0,3.3-1.3,5-4,5c-2.5,0-4-1.6-4-5c0-0.3,0-6.3,0-6.6h1.1v6.6
		c0,2.6,1,3.8,2.9,3.8c1.9,0,2.9-1.3,2.9-3.8v-6.6H8.5z"/>
	<path class="st2" d="M15.7,303.5h-4.6v-11.4c0,0,1.9,0,3.6,0c1.9,0,3.6,0.9,3.6,3.1c0,1.8-1.2,2.4-1.4,2.4c0.3,0,2,0.8,2,2.8
		C18.9,301.5,18.3,303.5,15.7,303.5z M15.5,297.1c1.2,0,1.7-1,1.7-1.9c0-0.8-0.5-2-2.1-2c-0.9,0-2.9,0-2.9,0v3.9
		C12.2,297.1,14.3,297.1,15.5,297.1z M15.5,298.2c-1.6,0-3.2,0-3.2,0v4.2c0,0,2.1,0,3.3,0c1.5,0,2.2-0.9,2.2-2.2
		C17.8,299.2,17,298.2,15.5,298.2z"/>
	<path class="st2" d="M31.2,292.2v11.4h-1.1v-10.3l-3.5,9.3h-1.2l-3.4-9v10h-1.1v-11.4h1.8L26,301l3.3-8.8H31.2z"/>
	<path class="st2" d="M34.8,292.2v11.4h-1.1v-11.4H34.8z"/>
	<path class="st2" d="M44,294.3c-0.4-0.6-1.6-1.1-2.8-1.1c-1.3,0-2.5,0.7-2.5,2.1c0,1.6,1.4,1.8,2.8,2.1c1.7,0.3,3.5,1.2,3.5,3.4
		c0,2.1-1.7,3-3.7,3c-2.3,0-3.5-1-4.3-2l0.9-0.7c1,1.3,2.1,1.7,3.4,1.7c1.6,0,2.6-0.7,2.6-1.9c0-1.7-1.6-2.2-3.5-2.5
		c-1.8-0.3-2.9-1.4-2.9-3c0.1-1.5,1.1-3.2,3.8-3.2c1.7,0,2.8,0.7,3.5,1.6L44,294.3z"/>
	<path class="st2" d="M54,294.3c-0.4-0.6-1.6-1.1-2.8-1.1c-1.3,0-2.5,0.7-2.5,2.1c0,1.6,1.4,1.8,2.8,2.1c1.7,0.3,3.5,1.2,3.5,3.4
		c0,2.1-1.7,3-3.7,3c-2.3,0-3.5-1-4.3-2l0.9-0.7c1,1.3,2.1,1.7,3.4,1.7c1.6,0,2.6-0.7,2.6-1.9c0-1.7-1.6-2.2-3.5-2.5
		c-1.8-0.3-2.9-1.4-2.9-3c0.1-1.5,1.1-3.2,3.8-3.2c1.7,0,2.8,0.7,3.5,1.6L54,294.3z"/>
	<path class="st2" d="M58.4,292.2v11.4h-1.1v-11.4H58.4z"/>
	<path class="st2" d="M69.6,297.2c0,0.2,0,1.1,0,1.3c0,3.2-1.8,5.1-4.4,5.1c-2.5,0-4.4-1.8-4.4-5.1c0-0.5,0-0.8,0-1.3
		c0-3.3,1.8-5.2,4.4-5.2C67.8,292,69.6,294,69.6,297.2z M61.9,297.2v1.3c0,2.5,1.2,4,3.3,4c2,0,3.3-1.5,3.3-4v-1.3
		c0-2.5-1.2-4.1-3.3-4.1C63.1,293.1,61.9,294.7,61.9,297.2z"/>
	<path class="st2" d="M80.1,303.5h-1.4l-6.1-9.8v9.8h-1.1v-11.4H73l6,9.8v-9.8h1.1V303.5z"/>
</g>
<g class="st1">
	<path class="st2" d="M145.9,284h-1.2l-1.1-2.8h-5l-1.1,2.8h-1.2l4.3-11.4h1L145.9,284z M143.2,280l-2.1-5.8L139,280H143.2z"/>
	<path class="st2" d="M151.9,284h-4.6v-11.4c0,0,1.9,0,3.6,0c1.9,0,3.6,0.9,3.6,3.1c0,1.8-1.2,2.4-1.4,2.4c0.3,0,2,0.8,2,2.8
		C155.1,281.9,154.5,284,151.9,284z M151.7,277.5c1.2,0,1.7-1,1.7-1.9c0-0.8-0.5-2-2.1-2c-0.9,0-2.9,0-2.9,0v3.9
		C148.4,277.5,150.4,277.5,151.7,277.5z M151.7,278.6c-1.6,0-3.2,0-3.2,0v4.2c0,0,2.1,0,3.3,0c1.5,0,2.2-0.9,2.2-2.2
		C154,279.6,153.2,278.6,151.7,278.6z"/>
</g>
<g class="st1">
	<path class="st2" d="M163.7,274.7c-0.4-0.6-1.6-1.1-2.8-1.1c-1.3,0-2.5,0.7-2.5,2.1c0,1.6,1.4,1.8,2.8,2.1c1.7,0.3,3.5,1.2,3.5,3.4
		c0,2.1-1.7,3-3.7,3c-2.3,0-3.5-1-4.3-2l0.9-0.7c1,1.3,2.1,1.7,3.4,1.7c1.6,0,2.6-0.7,2.6-1.9c0-1.7-1.6-2.2-3.5-2.5
		c-1.8-0.3-2.9-1.4-2.9-3c0.1-1.5,1.1-3.2,3.8-3.2c1.7,0,2.8,0.7,3.5,1.6L163.7,274.7z"/>
</g>
<g class="st1">
	<path class="st2" d="M174.2,273.7h-3.3V284h-1.1v-10.3h-3.3v-1.1h7.8V273.7z"/>
	<path class="st2" d="M182.9,284l-2.5-4.5c0,0,0,0,0,0c-0.1,0-2.3,0-2.9,0v4.5h-1.1v-11.4c0,0,3.7,0,4,0c2.3,0,3.7,1.6,3.7,3.4
		c0,1.5-1,2.8-2.5,3.3l2.6,4.6H182.9z M183,276c0-1.4-1.1-2.3-2.6-2.3h-2.9v4.7h2.9C181.9,278.4,183,277.4,183,276z"/>
</g>
<g class="st1">
	<path class="st2" d="M195.7,284h-1.2l-1.1-2.8h-5l-1.1,2.8h-1.2l4.3-11.4h1L195.7,284z M193,280l-2.1-5.8l-2.1,5.8H193z"/>
</g>
<g class="st1">
	<path class="st2" d="M205.4,280.2c-0.4,2.5-2.1,3.9-4.3,3.9c-2.5,0-4.4-1.7-4.4-5.1c0-0.5,0-0.8,0-1.3c0-3.3,1.8-5.3,4.4-5.3
		c2.2,0,3.8,1.4,4.3,3.8h-1.1c-0.4-1.7-1.5-2.6-3.2-2.6c-2.1,0-3.3,1.6-3.3,4.1v1.3c0,2.6,1.2,4,3.3,4c1.7,0,2.8-1.1,3.2-2.8H205.4z
		"/>
	<path class="st2" d="M214.8,273.7h-3.3V284h-1.1v-10.3H207v-1.1h7.8V273.7z"/>
</g>
<g class="st1">
	<path class="st2" d="M135.2,301.8H134l-1.1-2.8h-5l-1.1,2.8h-1.2l4.3-11.4h1L135.2,301.8z M132.5,297.8l-2.1-5.8l-2.1,5.8H132.5z"
		/>
</g>
<g class="st1">
	<path class="st2" d="M144.8,298c-0.4,2.5-2.1,3.9-4.3,3.9c-2.5,0-4.4-1.7-4.4-5.1c0-0.5,0-0.8,0-1.3c0-3.3,1.8-5.3,4.4-5.3
		c2.2,0,3.8,1.4,4.3,3.8h-1.1c-0.4-1.7-1.5-2.6-3.2-2.6c-2.1,0-3.3,1.6-3.3,4.1v1.3c0,2.6,1.2,4,3.3,4c1.7,0,2.8-1.1,3.2-2.8H144.8z
		"/>
	<path class="st2" d="M155.2,298c-0.4,2.5-2.1,3.9-4.3,3.9c-2.5,0-4.4-1.7-4.4-5.1c0-0.5,0-0.8,0-1.3c0-3.3,1.8-5.3,4.4-5.3
		c2.2,0,3.8,1.4,4.3,3.8H154c-0.4-1.7-1.5-2.6-3.2-2.6c-2.1,0-3.3,1.6-3.3,4.1v1.3c0,2.6,1.2,4,3.3,4c1.7,0,2.8-1.1,3.2-2.8H155.2z"
		/>
	<path class="st2" d="M164.2,300.6v1.2H157v-11.4h7v1.2h-5.9v3.8h4.8v1.2h-4.8v4.1H164.2z"/>
	<path class="st2" d="M174.1,293.9c0,1.9-1.5,3.4-3.7,3.4c-0.1,0-2.3,0-2.9,0v4.5h-1.1v-11.4c0,0,3.7,0,4,0
		C172.7,290.4,174.1,291.9,174.1,293.9z M173,293.9c0-1.4-1-2.3-2.6-2.3h-2.9v4.6h2.9C171.9,296.2,173,295.2,173,293.9z"/>
</g>
<g class="st1">
	<path class="st2" d="M183.6,291.5h-3.3v10.3h-1.1v-10.3h-3.3v-1.1h7.8V291.5z"/>
</g>
<g class="st1">
	<path class="st2" d="M193.7,301.8h-1.2l-1.1-2.8h-5l-1.1,2.8h-1.2l4.3-11.4h1L193.7,301.8z M191,297.8l-2.1-5.8l-2.1,5.8H191z"/>
	<path class="st2" d="M203.7,301.8h-1.4l-6.1-9.8v9.8h-1.1v-11.4h1.4l6,9.8v-9.8h1.1V301.8z"/>
	<path class="st2" d="M214.6,298c-0.4,2.5-2.1,3.9-4.3,3.9c-2.5,0-4.4-1.7-4.4-5.1c0-0.5,0-0.8,0-1.3c0-3.3,1.8-5.3,4.4-5.3
		c2.2,0,3.8,1.4,4.3,3.8h-1.1c-0.4-1.7-1.5-2.6-3.2-2.6c-2.1,0-3.3,1.6-3.3,4.1v1.3c0,2.6,1.2,4,3.3,4c1.7,0,2.8-1.1,3.2-2.8H214.6z
		"/>
	<path class="st2" d="M223.6,300.6v1.2h-7.2v-11.4h7v1.2h-5.9v3.8h4.8v1.2h-4.8v4.1H223.6z"/>
</g>
<g class="st1">
	<path class="st2" d="M278.3,284h-1.1v-11.4h7v1.2h-5.9v3.8h4.8v1.2h-4.8V284z"/>
	<path class="st2" d="M294.3,272.6c0,0.3,0,6.5,0,6.6c0,3.3-1.3,5-4,5c-2.5,0-4-1.6-4-5c0-0.3,0-6.3,0-6.6h1.1v6.6
		c0,2.6,1,3.8,2.9,3.8c1.9,0,2.9-1.3,2.9-3.8v-6.6H294.3z"/>
	<path class="st2" d="M304.1,282.9v1.1h-7.2v-11.4h1.1v10.3H304.1z"/>
	<path class="st2" d="M313,282.9v1.1h-7.2v-11.4h1.1v10.3H313z"/>
</g>
<g class="st1">
	<path class="st2" d="M325.6,276.1c0,1.9-1.5,3.4-3.7,3.4c-0.1,0-2.3,0-2.9,0v4.5h-1.1v-11.4c0,0,3.7,0,4,0
		C324.2,272.6,325.6,274.1,325.6,276.1z M324.5,276.1c0-1.4-1-2.3-2.6-2.3H319v4.6h2.9C323.4,278.4,324.5,277.4,324.5,276.1z"/>
</g>
<g class="st1">
	<path class="st2" d="M335.6,284h-1.2l-1.1-2.8h-5l-1.1,2.8H326l4.3-11.4h1L335.6,284z M332.9,280l-2.1-5.8l-2.1,5.8H332.9z"/>
	<path class="st2" d="M344.8,276.1c0,1.9-1.5,3.4-3.7,3.4c-0.1,0-2.3,0-2.9,0v4.5H337v-11.4c0,0,3.7,0,4,0
		C343.3,272.6,344.8,274.1,344.8,276.1z M343.7,276.1c0-1.4-1-2.3-2.6-2.3h-2.9v4.6h2.9C342.6,278.4,343.7,277.4,343.7,276.1z"/>
	<path class="st2" d="M353.8,282.8v1.2h-7.2v-11.4h7v1.2h-5.9v3.8h4.8v1.2h-4.8v4.1H353.8z"/>
	<path class="st2" d="M362.4,284l-2.5-4.5c0,0,0,0,0,0c-0.1,0-2.3,0-2.9,0v4.5h-1.1v-11.4c0,0,3.7,0,4,0c2.3,0,3.7,1.6,3.7,3.4
		c0,1.5-1,2.8-2.5,3.3l2.6,4.6H362.4z M362.6,276c0-1.4-1.1-2.3-2.6-2.3h-2.9v4.7h2.9C361.5,278.4,362.6,277.4,362.6,276z"/>
</g>
<g class="st1">
	<path class="st2" d="M283.8,292.5c-0.4-0.6-1.6-1.1-2.8-1.1c-1.3,0-2.5,0.7-2.5,2.1c0,1.6,1.4,1.8,2.8,2.1c1.7,0.3,3.5,1.2,3.5,3.4
		c0,2.1-1.7,3-3.7,3c-2.3,0-3.5-1-4.3-2l0.9-0.7c1,1.3,2.1,1.7,3.4,1.7c1.6,0,2.6-0.7,2.6-1.9c0-1.7-1.6-2.2-3.5-2.5
		c-1.8-0.3-2.9-1.4-2.9-3c0.1-1.5,1.1-3.2,3.8-3.2c1.7,0,2.8,0.7,3.5,1.6L283.8,292.5z"/>
	<path class="st2" d="M295.1,290.4c0,0.3,0,6.5,0,6.6c0,3.3-1.3,5-4,5c-2.5,0-4-1.6-4-5c0-0.3,0-6.3,0-6.6h1.1v6.6
		c0,2.6,1,3.8,2.9,3.8c1.9,0,2.9-1.3,2.9-3.8v-6.6H295.1z"/>
	<path class="st2" d="M302.3,301.8h-4.6v-11.4c0,0,1.9,0,3.6,0c1.9,0,3.6,0.9,3.6,3.1c0,1.8-1.2,2.4-1.4,2.4c0.3,0,2,0.8,2,2.8
		C305.5,299.7,304.9,301.8,302.3,301.8z M302.1,295.3c1.2,0,1.7-1,1.7-1.9c0-0.8-0.5-2-2.1-2c-0.9,0-2.9,0-2.9,0v3.9
		C298.8,295.3,300.8,295.3,302.1,295.3z M302.1,296.4c-1.6,0-3.2,0-3.2,0v4.2c0,0,2.1,0,3.3,0c1.5,0,2.2-0.9,2.2-2.2
		C304.4,297.4,303.6,296.4,302.1,296.4z"/>
	<path class="st2" d="M317.8,290.4v11.4h-1.1v-10.3l-3.5,9.3H312l-3.4-9v10h-1.1v-11.4h1.8l3.3,8.8l3.3-8.8H317.8z"/>
	<path class="st2" d="M321.4,290.4v11.4h-1.1v-11.4H321.4z"/>
	<path class="st2" d="M330.6,292.5c-0.4-0.6-1.6-1.1-2.8-1.1c-1.3,0-2.5,0.7-2.5,2.1c0,1.6,1.4,1.8,2.8,2.1c1.7,0.3,3.5,1.2,3.5,3.4
		c0,2.1-1.7,3-3.7,3c-2.3,0-3.5-1-4.3-2l0.9-0.7c1,1.3,2.1,1.7,3.4,1.7c1.6,0,2.6-0.7,2.6-1.9c0-1.7-1.6-2.2-3.5-2.5
		c-1.8-0.3-2.9-1.4-2.9-3c0.1-1.5,1.1-3.2,3.8-3.2c1.7,0,2.8,0.7,3.5,1.6L330.6,292.5z"/>
	<path class="st2" d="M340.6,292.5c-0.4-0.6-1.6-1.1-2.8-1.1c-1.3,0-2.5,0.7-2.5,2.1c0,1.6,1.4,1.8,2.8,2.1c1.7,0.3,3.5,1.2,3.5,3.4
		c0,2.1-1.7,3-3.7,3c-2.3,0-3.5-1-4.3-2l0.9-0.7c1,1.3,2.1,1.7,3.4,1.7c1.6,0,2.6-0.7,2.6-1.9c0-1.7-1.6-2.2-3.5-2.5
		c-1.8-0.3-2.9-1.4-2.9-3c0.1-1.5,1.1-3.2,3.8-3.2c1.7,0,2.8,0.7,3.5,1.6L340.6,292.5z"/>
	<path class="st2" d="M345,290.4v11.4h-1.1v-11.4H345z"/>
	<path class="st2" d="M356.2,295.4c0,0.2,0,1.1,0,1.3c0,3.2-1.8,5.1-4.4,5.1c-2.5,0-4.4-1.8-4.4-5.1c0-0.5,0-0.8,0-1.3
		c0-3.3,1.8-5.2,4.4-5.2S356.2,292.3,356.2,295.4z M348.5,295.4v1.3c0,2.5,1.2,4,3.3,4c2,0,3.3-1.5,3.3-4v-1.3
		c0-2.5-1.2-4.1-3.3-4.1C349.7,291.4,348.5,292.9,348.5,295.4z"/>
	<path class="st2" d="M366.7,301.8h-1.4l-6.1-9.8v9.8h-1.1v-11.4h1.4l6,9.8v-9.8h1.1V301.8z"/>
</g>
<g class="st1">
	<path class="st2" d="M416,179.9c1.9,0,3.4,1.2,3.4,2.9c0,2.1-1.6,2.7-2.8,3.6c-1.2,0.8-3,1.9-3,3.7h5.9v1.2h-7.1
		c0-1.7,0.1-3,1.6-4.5s4.2-2.3,4.2-4c0-1.4-0.9-1.9-2.3-1.9c-1.6,0-2.3,1.4-2.5,2.2l-1.1-0.2C412.7,181.2,414.1,179.9,416,179.9z"/>
</g>
<g class="st1">
	<path class="st2" d="M425.1,179.9c1.9,0,3.4,1.2,3.4,2.9c0,2.1-1.6,2.7-2.8,3.6c-1.2,0.8-3,1.9-3,3.7h5.9v1.2h-7.1
		c0-1.7,0.1-3,1.7-4.5s4.2-2.3,4.2-4c0-1.4-0.9-1.9-2.3-1.9c-1.6,0-2.3,1.4-2.5,2.2l-1.1-0.2C421.8,181.2,423.2,179.9,425.1,179.9z"
		/>
</g>
<g class="st1">
	<path class="st2" d="M436.4,186.3v1h-6.2v-1H436.4z"/>
	<path class="st2" d="M442.1,179.9c1.9,0,3.4,1.2,3.4,2.9c0,2.1-1.6,2.7-2.8,3.6c-1.2,0.8-3,1.9-3,3.7h5.9v1.2h-7.1
		c0-1.7,0.1-3,1.7-4.5s4.2-2.3,4.2-4c0-1.4-0.9-1.9-2.3-1.9c-1.6,0-2.3,1.4-2.5,2.2l-1.1-0.2C438.8,181.2,440.2,179.9,442.1,179.9z"
		/>
	<path class="st2" d="M447.8,182.4c0.3-1.1,1.2-2.5,3.4-2.5c2.4,0,3.4,1.6,3.4,3.1c0,1.5-1.2,2.5-1.5,2.5c0.4,0.2,1.8,0.8,1.8,2.8
		s-1.8,3.2-3.7,3.2c-1.9,0-3-0.7-3.7-2.6c0,0,1.1-0.4,1.1-0.4c0.3,1,0.9,1.9,2.6,1.9c1.1,0,2.5-0.7,2.5-2.1c0-1.4-0.9-2.2-2.5-2.2
		c0,0-0.3,0-0.3,0v-1c0,0,0.2,0,0.3,0c1.3,0,2.2-0.8,2.2-2.1c0-1.1-0.9-2-2.3-2c-1.7,0-2.2,1.2-2.4,1.8L447.8,182.4z"/>
	<path class="st2" d="M461.3,180l-3.6,11.4h-1.2L460,180H461.3z"/>
	<path class="st2" d="M463.9,180h1.2v11.4h-1.1v-10.2l-1.8,0.9v-1.1L463.9,180z"/>
	<path class="st2" d="M474.5,188.4c-0.2,1.5-1.1,3.1-3.6,3.1c-2.5,0-3.5-1.9-3.7-3c-0.2-1.1-0.3-4.2,0-5.6c0.3-1.8,1.7-3,3.7-3
		c2,0,3.3,1.6,3.5,3.3C474.7,184.8,474.7,186.9,474.5,188.4z M473.3,183.1c-0.2-0.8-0.5-2-2.3-2c-1.8,0-2.5,1.2-2.6,2.1
		c-0.2,0.9-0.3,3.4,0,4.9c0.1,0.7,0.4,2.3,2.6,2.3c1.7,0,2.3-1.4,2.5-2.3C473.6,186.8,473.6,184.2,473.3,183.1z"/>
</g>
<g>
	<path class="st2" d="M529.6,238.7h-33.3c-2.1,0-3.8-1.6-3.9-3.6l-0.5-6.1c-0.1-1.2,0.8-2.1,2-2.1h38.2c1.2,0,2.1,1,2,2.1l-0.5,6.1
		C533.4,237.1,531.7,238.7,529.6,238.7z M529.3,240.6h-32.6l4,29.7h24.7L529.3,240.6z M513.2,211.9c3.7,0,6.7-3,6.7-6.7
		s-3-6.7-6.7-6.7s-6.7,3-6.7,6.7C506.5,209,509.5,211.9,513.2,211.9z M528.3,224.8l-1.5-6.5c-0.4-1.7-1.7-2.9-3.4-3.2l-5.9-0.9
		l-2.9,6.7l-0.4-3.3c0-0.1-0.1-0.2-0.2-0.2h-1.7c-0.1,0-0.2,0.1-0.2,0.2l-0.3,3.4l-3-6.8l-5.9,0.9c-1.7,0.2-3,1.5-3.4,3.2l-1.5,6.5
		H528.3L528.3,224.8z M511.1,214.5c0,0.6,0.5,1.4,0.8,1.7s0.8,0.3,1.2,0.3s0.9,0,1.2-0.3s0.8-1.1,0.8-1.7c0-0.7-1.3-0.8-2.1-0.8
		C512.4,213.7,511.1,213.8,511.1,214.5z"/>
</g>
</svg>
