<svg width="143" height="142" viewBox="0 0 143 142" fill="none" xmlns="http://www.w3.org/2000/svg">
<path d="M68.4351 23.472V27.936C68.4351 30.656 67.7631 32.752 66.4191 34.224C65.1071 35.664 63.1551 36.384 60.5631 36.384C57.9711 36.384 56.0031 35.664 54.6591 34.224C53.3471 32.752 52.6911 30.656 52.6911 27.936V10.464C52.6911 7.744 53.3471 5.664 54.6591 4.224C56.0031 2.752 57.9711 2.016 60.5631 2.016C63.1551 2.016 65.1071 2.752 66.4191 4.224C67.7631 5.664 68.4351 7.744 68.4351 10.464V13.728H63.4431V10.128C63.4431 8.912 63.1871 8.064 62.6751 7.584C62.1951 7.072 61.5391 6.816 60.7071 6.816C59.8751 6.816 59.2031 7.072 58.6911 7.584C58.2111 8.064 57.9711 8.912 57.9711 10.128V28.272C57.9711 29.488 58.2111 30.336 58.6911 30.816C59.2031 31.296 59.8751 31.536 60.7071 31.536C61.5391 31.536 62.1951 31.296 62.6751 30.816C63.1871 30.336 63.4431 29.488 63.4431 28.272V23.472H68.4351ZM88.7267 36H83.3987L82.4868 29.904H76.0067L75.0948 36H70.2467L75.6228 2.4H83.3508L88.7267 36ZM76.6787 25.344H81.7667L79.2227 8.352L76.6787 25.344ZM91.1856 2.4H96.4656V31.2H105.154V36H91.1856V2.4ZM107.451 2.4H112.731V31.2H121.419V36H107.451V2.4ZM7.28594 65.328H14.1019V70.128H7.28594V84H2.00594V50.4H15.9739V55.2H7.28594V65.328ZM23.3539 76.272C23.3539 77.488 23.5939 78.352 24.0739 78.864C24.5859 79.344 25.2579 79.584 26.0899 79.584C26.9219 79.584 27.5779 79.344 28.0579 78.864C28.5699 78.352 28.8259 77.488 28.8259 76.272V58.128C28.8259 56.912 28.5699 56.064 28.0579 55.584C27.5779 55.072 26.9219 54.816 26.0899 54.816C25.2579 54.816 24.5859 55.072 24.0739 55.584C23.5939 56.064 23.3539 56.912 23.3539 58.128V76.272ZM18.0739 58.464C18.0739 55.744 18.7619 53.664 20.1379 52.224C21.5139 50.752 23.4979 50.016 26.0899 50.016C28.6819 50.016 30.6659 50.752 32.0419 52.224C33.4179 53.664 34.1059 55.744 34.1059 58.464V75.936C34.1059 78.656 33.4179 80.752 32.0419 82.224C30.6659 83.664 28.6819 84.384 26.0899 84.384C23.4979 84.384 21.5139 83.664 20.1379 82.224C18.7619 80.752 18.0739 78.656 18.0739 75.936V58.464ZM48.5772 84C48.5132 83.776 48.4492 83.568 48.3852 83.376C48.3212 83.184 48.2572 82.944 48.1932 82.656C48.1612 82.368 48.1292 82 48.0972 81.552C48.0972 81.104 48.0972 80.544 48.0972 79.872V74.592C48.0972 73.024 47.8252 71.92 47.2812 71.28C46.7372 70.64 45.8572 70.32 44.6412 70.32H42.8172V84H37.5372V50.4H45.5052C48.2572 50.4 50.2412 51.04 51.4572 52.32C52.7052 53.6 53.3292 55.536 53.3292 58.128V60.768C53.3292 64.224 52.1772 66.496 49.8732 67.584C51.2172 68.128 52.1292 69.024 52.6092 70.272C53.1212 71.488 53.3772 72.976 53.3772 74.736V79.92C53.3772 80.752 53.4092 81.488 53.4732 82.128C53.5372 82.736 53.6972 83.36 53.9532 84H48.5772ZM42.8172 55.2V65.52H44.8812C45.8732 65.52 46.6412 65.264 47.1852 64.752C47.7612 64.24 48.0492 63.312 48.0492 61.968V58.656C48.0492 57.44 47.8252 56.56 47.3772 56.016C46.9612 55.472 46.2892 55.2 45.3612 55.2H42.8172ZM72.0788 50.4C74.7348 50.4 76.7028 51.104 77.9828 52.512C79.2948 53.92 79.9508 55.984 79.9508 58.704V63.072C79.9508 65.792 79.2948 67.856 77.9828 69.264C76.7028 70.672 74.7348 71.376 72.0788 71.376H69.5828V84H64.3028V50.4H72.0788ZM69.5828 55.2V66.576H72.0788C72.9108 66.576 73.5508 66.352 73.9988 65.904C74.4468 65.456 74.6708 64.624 74.6708 63.408V58.368C74.6708 57.152 74.4468 56.32 73.9988 55.872C73.5508 55.424 72.9108 55.2 72.0788 55.2H69.5828ZM99.1096 84H93.7816L92.8696 77.904H86.3896L85.4776 84H80.6296L86.0056 50.4H93.7336L99.1096 84ZM87.0616 73.344H92.1496L89.6056 56.352L87.0616 73.344ZM109.344 50.4C112 50.4 113.968 51.104 115.248 52.512C116.56 53.92 117.216 55.984 117.216 58.704V63.072C117.216 65.792 116.56 67.856 115.248 69.264C113.968 70.672 112 71.376 109.344 71.376H106.848V84H101.568V50.4H109.344ZM106.848 55.2V66.576H109.344C110.176 66.576 110.816 66.352 111.264 65.904C111.712 65.456 111.936 64.624 111.936 63.408V58.368C111.936 57.152 111.712 56.32 111.264 55.872C110.816 55.424 110.176 55.2 109.344 55.2H106.848ZM125.177 64.56H132.425V69.36H125.177V79.2H134.297V84H119.897V50.4H134.297V55.2H125.177V64.56ZM148.608 84C148.544 83.776 148.48 83.568 148.416 83.376C148.352 83.184 148.288 82.944 148.224 82.656C148.192 82.368 148.16 82 148.128 81.552C148.128 81.104 148.128 80.544 148.128 79.872V74.592C148.128 73.024 147.856 71.92 147.312 71.28C146.768 70.64 145.888 70.32 144.672 70.32H142.848V84H137.568V50.4H145.536C148.288 50.4 150.272 51.04 151.488 52.32C152.736 53.6 153.36 55.536 153.36 58.128V60.768C153.36 64.224 152.208 66.496 149.904 67.584C151.248 68.128 152.16 69.024 152.64 70.272C153.152 71.488 153.408 72.976 153.408 74.736V79.92C153.408 80.752 153.44 81.488 153.504 82.128C153.568 82.736 153.728 83.36 153.984 84H148.608ZM142.848 55.2V65.52H144.912C145.904 65.52 146.672 65.264 147.216 64.752C147.792 64.24 148.08 63.312 148.08 61.968V58.656C148.08 57.44 147.856 56.56 147.408 56.016C146.992 55.472 146.32 55.2 145.392 55.2H142.848ZM156.209 58.464C156.209 55.744 156.849 53.664 158.129 52.224C159.441 50.752 161.393 50.016 163.985 50.016C166.577 50.016 168.513 50.752 169.793 52.224C171.105 53.664 171.761 55.744 171.761 58.464V59.52H166.769V58.128C166.769 56.912 166.529 56.064 166.049 55.584C165.601 55.072 164.961 54.816 164.129 54.816C163.297 54.816 162.641 55.072 162.161 55.584C161.713 56.064 161.489 56.912 161.489 58.128C161.489 59.28 161.745 60.304 162.257 61.2C162.769 62.064 163.409 62.896 164.177 63.696C164.945 64.464 165.761 65.248 166.625 66.048C167.521 66.816 168.353 67.664 169.121 68.592C169.889 69.52 170.529 70.576 171.041 71.76C171.553 72.944 171.809 74.336 171.809 75.936C171.809 78.656 171.137 80.752 169.793 82.224C168.481 83.664 166.529 84.384 163.937 84.384C161.345 84.384 159.377 83.664 158.033 82.224C156.721 80.752 156.065 78.656 156.065 75.936V73.872H161.057V76.272C161.057 77.488 161.297 78.336 161.777 78.816C162.289 79.296 162.961 79.536 163.793 79.536C164.625 79.536 165.281 79.296 165.761 78.816C166.273 78.336 166.529 77.488 166.529 76.272C166.529 75.12 166.273 74.112 165.761 73.248C165.249 72.352 164.609 71.52 163.841 70.752C163.073 69.952 162.241 69.168 161.345 68.4C160.481 67.6 159.665 66.736 158.897 65.808C158.129 64.88 157.489 63.824 156.977 62.64C156.465 61.456 156.209 60.064 156.209 58.464Z" transform="translate(58.9531 -36.929) rotate(45)" fill="white"/>
</svg>
