<svg width="23" height="23" viewBox="0 0 23 23" fill="none" xmlns="http://www.w3.org/2000/svg">
<path d="M17.3749 13.0058C16.7507 15.096 15.096 16.7507 13.0058 17.3749V15.7927C13.0058 15.2847 12.5848 14.8637 12.0768 14.8637H10.2188C9.71079 14.8637 9.28984 15.2847 9.28984 15.7927V17.3749C7.19963 16.7507 5.54488 15.096 4.92071 13.0058H6.50289C7.01093 13.0058 7.43188 12.5848 7.43188 12.0768V10.2188C7.43188 9.71079 7.01093 9.28984 6.50289 9.28984H4.92071C5.54488 7.19963 7.19963 5.54487 9.28984 4.92071V6.50289C9.28984 7.01093 9.71079 7.43187 10.2188 7.43187H12.0768C12.5848 7.43187 13.0058 7.01093 13.0058 6.50289V4.92071C15.096 5.54487 16.7507 7.19963 17.3749 9.28984H15.7927C15.2847 9.28984 14.8638 9.71079 14.8638 10.2188V12.0768C14.8638 12.5848 15.2847 13.0058 15.7927 13.0058H17.3749ZM22.2956 10.2188C22.2956 9.71079 21.8747 9.28984 21.3666 9.28984H19.2909C18.5797 6.16904 16.1266 3.71594 13.0058 3.00468V0.928984C13.0058 0.420946 12.5848 0 12.0768 0H10.2188C9.71079 0 9.28984 0.420946 9.28984 0.928984V3.00468C6.16904 3.71594 3.71594 6.16904 3.00468 9.28984H0.928984C0.420946 9.28984 0 9.71079 0 10.2188V12.0768C0 12.5848 0.420946 13.0058 0.928984 13.0058H3.00468C3.71594 16.1266 6.16904 18.5797 9.28984 19.2909V21.3666C9.28984 21.8747 9.71079 22.2956 10.2188 22.2956H12.0768C12.5848 22.2956 13.0058 21.8747 13.0058 21.3666V19.2909C16.1266 18.5797 18.5797 16.1266 19.2909 13.0058H21.3666C21.8747 13.0058 22.2956 12.5848 22.2956 12.0768V10.2188Z" transform="translate(0.418945 0.385254)" fill="white"/>
</svg>
