<svg width="24" height="23" viewBox="0 0 24 23" fill="none" xmlns="http://www.w3.org/2000/svg">
<path d="M11.1478 0C4.99329 0 0 4.99329 0 11.1478C0 17.3023 4.99329 22.2956 11.1478 22.2956C17.3023 22.2956 22.2956 17.3023 22.2956 11.1478C22.2956 4.99329 17.3023 0 11.1478 0ZM15.125 7.56251C15.2847 7.4609 15.546 7.33027 15.7492 7.38833C15.9089 7.43187 16.0395 7.48993 15.8508 7.62057C15.7637 7.67864 15.6331 7.62057 15.5315 7.6496C15.6621 7.67864 15.8508 7.7367 15.7927 7.86733C16.1701 8.08507 15.6766 8.34634 15.4298 8.31731C15.546 8.33183 15.1831 8.54956 15.1831 8.53504C15.0524 8.60762 14.8783 8.60762 14.7767 8.73826C14.6605 8.89793 14.8202 9.17372 14.6025 9.11566C14.5154 9.30436 14.1815 9.20275 14.0364 9.40597C14.196 9.58015 13.8767 9.82691 13.717 9.60918C13.5719 9.66724 13.6445 9.82691 13.4993 9.914C13.5574 10.0011 13.5719 10.0882 13.4703 10.1462C13.4993 10.1317 13.6735 10.2769 13.717 10.2914C13.688 10.364 13.6299 10.422 13.5574 10.422C13.6299 10.6107 13.4703 10.814 13.3396 10.9301C13.1945 11.0462 12.8606 11.1623 12.8171 11.1914C12.5558 11.4381 12.3816 11.801 12.8461 11.9026C12.8606 11.9026 12.8606 12.3816 12.8751 12.3961C12.9042 12.5703 12.9767 13.0784 12.6719 12.8897C12.5268 12.8171 12.4397 12.4106 12.3961 12.251C12.3526 12.0768 12.3381 12.0768 12.2219 11.9026C12.0332 12.1203 12.0042 11.9607 11.8445 11.8591C11.6849 11.772 11.4526 11.801 11.3655 11.7139C11.1478 11.8736 10.9881 11.83 10.9446 11.5833C10.8865 11.6994 11.0027 11.8736 10.9881 11.9171C10.9156 12.0623 10.7849 12.0332 10.6688 11.9462C10.4801 11.801 10.0737 12.0478 9.85594 11.9462C9.87046 11.9462 9.92852 12.0042 9.97207 12.0332C9.92852 12.2074 9.82691 12.1058 9.73982 12.1639C9.63821 12.2365 9.55112 12.3816 9.46403 12.4542C9.65273 12.8171 9.44951 13.1654 9.46403 13.5574C9.46403 13.8477 9.65273 14.3557 9.92852 14.5154C10.0592 14.588 10.4946 14.617 10.6253 14.5589C10.8285 14.4718 10.7994 14.3122 10.872 14.138C10.9446 13.9493 11.0317 13.8622 11.2494 13.8477C11.8736 13.8186 11.3946 14.3267 11.322 14.588C11.2785 14.7767 11.2639 14.9944 11.2349 15.1686C11.3075 15.1976 11.3801 15.1831 11.4526 15.1831C11.4526 15.125 11.4962 15.0524 11.4962 15.0089C11.5833 15.1541 11.8736 15.1976 11.9607 15.0234C12.0623 15.1976 12.2655 15.3282 12.2945 15.5315C12.3236 15.7347 12.5123 15.9524 12.2365 15.9524C12.0332 15.9524 12.2655 16.3588 12.2945 16.4314C12.4542 16.7217 12.7155 16.8378 13.0058 16.6927C13.0058 16.8088 12.9622 17.1281 12.8026 17.1572C12.6574 17.1862 12.3816 16.8814 12.4397 16.7217C12.4252 16.7798 12.3816 16.8233 12.3381 16.8524C12.1929 16.6782 11.9462 16.5911 11.8155 16.4169C11.7865 16.3733 11.3946 15.7782 11.4817 15.7492C11.2785 15.8363 10.872 15.6911 10.6833 15.5895C10.3785 15.4298 10.335 15.0089 9.95755 15.067C9.69627 15.1105 9.6237 15.2121 9.31887 15.096C9.11566 15.0234 8.94147 14.8783 8.73826 14.7767C8.50601 14.646 8.09958 14.5154 8.01249 14.2251C7.9254 13.9928 7.95443 13.717 7.82379 13.4993C7.7367 13.3541 7.47542 13.0638 7.28672 13.0638C7.46091 13.0638 7.12705 12.6284 7.08351 12.5848C6.92384 12.3961 6.34322 11.8881 6.45934 11.5978C6.48838 11.5542 6.16904 11.4381 6.11097 11.4236C6.16904 11.5688 6.18355 11.7284 6.25613 11.8591C6.32871 12.0042 6.4158 12.1349 6.50289 12.28C6.66256 12.5413 6.88029 12.8606 6.85126 13.18C6.66256 13.238 6.72062 12.9622 6.66256 12.8461C6.56095 12.6574 6.28516 12.6574 6.21258 12.4542C6.24161 12.4397 6.25613 12.4397 6.28516 12.4252C6.29967 12.1784 5.93679 11.9752 5.99485 11.801C5.79164 11.6413 5.79164 11.3365 5.64648 11.1333C5.51584 10.9446 5.29811 10.8575 5.10941 10.7269C5.03684 10.6833 4.51428 10.0156 4.70298 9.97206C4.41268 10.0446 4.26752 9.36242 4.31107 9.18823C4.31107 9.18823 4.28204 9.18823 4.28204 9.17372C4.3401 8.99954 4.23849 8.09958 4.47074 8.08507C4.31107 8.09958 4.26752 7.70767 4.31107 7.63509C4.3401 7.57703 4.55783 7.79476 4.57234 7.82379C4.65944 7.78024 4.74653 7.66412 4.7175 7.56251C4.67395 7.44639 4.51428 7.34478 4.41268 7.25769C4.36913 7.22866 3.78851 6.85126 3.774 6.86577C3.83206 6.76417 3.81755 6.66256 3.73045 6.58998C3.45466 6.80771 3.59981 6.38677 3.45466 6.34322C3.3966 6.3287 3.33854 6.28516 3.28048 6.2271C4.12237 4.89168 5.29811 3.774 6.69159 3.00468C6.77868 2.99017 6.8948 2.99017 7.01093 2.99017C7.2722 3.0192 7.41736 3.23693 7.60606 3.36757C7.63509 3.29499 7.57703 3.17887 7.53348 3.10629C7.57703 2.99017 7.75121 2.96114 7.85282 2.93211C7.98346 2.91759 8.17216 2.88856 8.28828 2.94662C8.20119 2.81598 8.09958 2.69986 7.99797 2.58374C7.98346 2.59825 7.93991 2.62728 7.9254 2.65631C7.76573 2.52568 7.46091 2.69986 7.31575 2.75792C7.19963 2.81598 7.09802 2.88856 6.9819 2.93211C6.90932 2.96114 6.86577 2.96114 6.80771 2.94662C7.24317 2.71438 7.69315 2.51116 8.17216 2.35149C8.25925 2.40955 8.34634 2.51116 8.47698 2.61277C8.38989 2.54019 8.38989 2.87404 8.41892 2.93211C8.57859 3.14984 8.92696 3.00468 9.14469 3.00468C9.13017 3.00468 9.78337 3.09178 9.65273 2.93211C9.75434 3.07726 9.75434 3.29499 9.88497 3.42563C10.0156 3.29499 9.82691 3.14984 9.914 3.0192C9.94304 2.96114 10.2043 2.88856 10.2914 2.84501C10.393 2.77244 10.2188 2.67083 10.1753 2.6418C10.0301 2.55471 9.46403 2.51116 9.73982 2.17731C9.84143 2.06118 10.2043 2.11924 10.3204 2.19182C10.4801 2.27891 10.6543 2.43858 10.4366 2.58374C10.5382 2.59825 11.0172 2.72889 10.9446 2.91759C10.9881 2.8305 11.0607 2.69986 11.1768 2.69986C11.3075 2.71438 11.3365 3.0192 11.3946 3.09178C11.5978 3.45466 11.9462 2.72889 12.0042 2.75792C11.7429 2.65631 12.2365 2.52568 12.3671 2.56922C12.4687 2.61277 12.6284 2.96114 12.4397 2.94662C12.5993 3.09178 12.6139 3.41111 12.3236 3.3966C12.1203 3.38208 11.8881 3.10629 11.6994 3.32402C11.5688 3.46918 11.5107 3.68691 11.3801 3.81754C11.1768 4.02076 10.901 4.00625 10.6543 3.97721C10.7559 3.99173 10.4366 4.32558 10.4075 4.38364C10.3204 4.48525 10.2624 4.60137 10.2333 4.7175C10.2043 4.86265 10.2333 5.02232 10.1608 5.16747C10.4075 5.0949 10.5382 5.54487 10.4366 5.55939C10.7414 5.51584 10.9881 5.51584 11.2785 5.61745C11.4817 5.69003 11.7865 5.77712 11.8736 5.99485C11.9316 5.90776 12.2074 5.95131 12.2945 5.98034C12.4687 6.06743 12.4832 6.25613 12.5268 6.4158C12.5848 6.63353 12.7735 6.99641 13.0203 6.88029C13.0638 6.85126 13.3832 6.70611 13.2671 6.61901C13.1509 6.5174 13.0203 6.25613 13.1364 6.11097C13.2525 5.95131 13.5283 5.90776 13.6009 5.70454C13.717 5.37069 13.2525 5.41424 13.2525 5.16747C13.2525 5.02232 13.4412 4.97878 13.4267 4.80459C13.4267 4.65944 13.209 4.36913 13.3832 4.26752C13.5283 4.18043 14.2251 4.32558 14.3557 4.41268C14.4863 4.49977 14.8928 4.61589 14.9218 4.74653C14.8928 4.74653 14.8783 4.74653 14.8492 4.74653C14.9654 4.84814 15.067 5.06587 14.8638 5.12393C14.9944 5.0949 15.3718 5.24005 15.1105 5.32714C15.1976 5.2836 15.2702 5.31263 15.3573 5.25457C15.4589 5.19651 15.5169 5.0949 15.6476 5.16747C15.6766 5.18199 15.8363 4.86265 15.9234 4.87717C16.054 4.89168 16.083 5.08038 16.1411 5.16747C16.1992 5.29811 16.3588 5.34166 16.4169 5.4723C16.5185 5.71906 16.475 5.95131 16.8088 6.0384C16.9104 6.06743 17.1862 5.90776 17.1717 6.12549C17.2298 6.06743 17.2588 6.02388 17.2588 6.00937C17.2733 6.21258 17.3604 6.44483 17.6072 6.4158C17.6072 6.4158 17.6072 6.69159 17.5781 6.73513C17.491 6.86577 17.2733 6.83674 17.1427 6.90932C17.0991 6.92384 16.7507 7.22866 16.7943 7.2722C16.6056 7.05447 16.3008 7.05447 16.054 7.11254C15.7927 7.15608 15.546 7.18511 15.2992 7.28672C15.1831 7.34478 15.067 7.40284 14.9799 7.50445C14.9363 7.56251 14.8637 7.82379 14.7912 7.8383C14.9363 7.80927 15.0089 7.6496 15.125 7.56251ZM12.759 20.2925C12.7445 20.2199 12.73 20.0748 12.73 20.0603C12.7155 19.828 12.9622 19.6683 12.9477 19.4506C12.788 19.4071 12.7445 19.2474 12.7735 19.0732C12.8026 18.8264 13.0203 18.6523 13.1945 18.4926C13.3687 18.3329 13.4122 17.9991 13.3687 17.7959C13.2961 17.4475 13.2961 17.0846 13.238 16.7362C13.2525 16.8233 13.4993 16.7943 13.5429 16.9104C13.6009 16.8088 13.6299 16.6782 13.7025 16.5766C13.7606 16.4895 13.8622 16.4604 13.9493 16.3879C14.0944 16.3008 14.3993 15.9669 14.5734 16.1701C14.7186 16.3443 14.3557 16.533 14.5444 16.6927C14.6025 16.5766 14.5444 16.4024 14.6605 16.2863C14.8928 16.025 15.0524 16.3153 15.2847 16.3879C15.5315 16.4604 15.6185 16.5475 15.8072 16.7072C15.7492 16.6491 16.0395 16.5475 16.0685 16.533C16.3443 16.475 16.4604 16.6346 16.6491 16.7798C16.8524 16.9249 17.1717 17.0265 17.1427 17.3168C17.2878 17.3459 17.3749 17.3894 17.491 17.433C17.6072 17.491 17.7668 17.462 17.8539 17.5491C16.5185 18.9571 14.7476 19.9441 12.759 20.2925Z" transform="translate(0.918945 0.385254)" fill="white"/>
</svg>
