<svg xmlns="http://www.w3.org/2000/svg" xmlns:xlink="http://www.w3.org/1999/xlink" version="1.1" x="0px" y="0px" viewBox="0 0 100 125" enable-background="new 0 0 100 100" xml:space="preserve"><path d="M97.4,75.9c0.1-1.8-1-3.8-3.5-4c-1.8-0.1-5.6,1.9-6.6,2.4c-3.7,1.8-8.7,4.7-12.1,7c-0.2,0.2-0.5,0.4-0.8,0.5  c-1.5,1-3.1,1.6-4.8,2c-9.7,2.1-23.8,2.3-23.8,2.3l-0.8,0c-0.6,0-1.2-0.4-1.3-1c-0.1-0.7,0.4-1.3,1.1-1.3l21-2  c2.3-0.3,4.2-2.4,3.9-4.8c-0.2-2.4-2.5-4.2-4.8-4l-18.7-0.2c-1.3,0-3.3-0.3-4.5-0.7c-12-3.5-18.8-0.2-22.4,1.3  c-0.8-1.3-2.3-2.2-4-2.1l-8.1,0.5c-2.7,0.2-4.7,2.4-4.5,5l1.3,17.9c0.2,2.6,2.5,4.5,5.2,4.3l8.1-0.5c1.7-0.1,3.1-1.2,3.7-2.6  l35.4,1.5c3.9,0.4,7.6-0.1,11.1-1.9l1-0.5l26.7-15.6C96.4,78.7,97.3,77.4,97.4,75.9z M12.1,94.9c-1.5,0-2.7-1.2-2.7-2.6  s1.2-2.6,2.7-2.6s2.7,1.2,2.7,2.6S13.6,94.9,12.1,94.9z M74,78.1c0-0.5,0-1,0-1.5c-0.1-0.6-0.2-1.2-0.4-1.8c0,0,0-0.1,0-0.1  c2.8-1.5,8.3-4.2,11.4-5.4c1.5-0.6,3-0.6,4.4,0.4c-1.1,0.4-2.1,0.9-3,1.3c-3.2,1.6-8.7,4.6-11.5,6.5C74.5,77.7,74.2,77.9,74,78.1z   M69.9,70.2c1.8-1,6-2.3,7.8-3.1c1.5-0.6,3-0.6,4.3,0.3c-2.2,1-6.4,2.4-8.4,3.5l-1.3,0.7c-0.1,0.1-0.2,0.2-0.4,0.2  C71.4,71.3,70.6,70.7,69.9,70.2z M59.5,56.6c1,0.1,1.8,0.9,1.8,1.9v1.9c0,1.5-1.1,2.8-2.6,3l-0.5,1.7c-0.3,0.9-1.1,1.6-2.1,1.6h-4.7  c-1,0-1.9-0.7-2.1-1.6l-0.5-1.7c-1.5-0.2-2.6-1.5-2.6-3v-1.9c0-1,0.8-1.9,1.9-1.9H59.5z M38.5,47.7c0.7,0.7,0.7,1.9,0,2.6L34,54.9  c-0.3,0.3-0.8,0.5-1.3,0.5c-0.5,0-0.9-0.2-1.3-0.5c-0.7-0.7-0.7-1.9,0-2.6l4.6-4.6C36.7,47,37.9,47,38.5,47.7z M37.5,32.7  c0.1,4.3,1.8,8.2,4.6,11.1c2.1,2.2,3.6,5.1,4,8.1c0.2,1.3,1.3,2.3,2.7,2.3h10.1c1.3,0,2.5-1,2.7-2.3c0.5-3.1,1.9-5.9,4-8.1  c2.8-2.9,4.6-6.9,4.6-11.3c0-9-7.3-16.3-16.5-16.2C44.6,16.3,37.4,23.6,37.5,32.7z M53.8,20.9c1,0,1.8,0.8,1.8,1.8  c0,1-0.8,1.8-1.9,1.9c-4.4,0-8.1,3.6-8.1,8.1c0,1-0.8,1.8-1.8,1.8s-1.8-0.8-1.8-1.8C42.1,26.1,47.4,20.9,53.8,20.9z M85.4,32.5  c0,1-0.8,1.8-1.8,1.8h-6.4c-1,0-1.8-0.8-1.8-1.8c0-1,0.8-1.8,1.8-1.8h6.4C84.7,30.7,85.5,31.5,85.4,32.5z M76.2,10.1  c0.7,0.7,0.7,1.9,0,2.6l-4.6,4.6c-0.3,0.3-0.8,0.5-1.3,0.5c-0.5,0-0.9-0.2-1.3-0.5c-0.7-0.7-0.7-1.9,0-2.6l4.6-4.6  C74.4,9.3,75.5,9.3,76.2,10.1z M30.5,30.7c1,0,1.8,0.8,1.8,1.8c0,1-0.9,1.8-1.8,1.8H24c-1,0-1.8-0.8-1.8-1.8c0-1,0.8-1.8,1.8-1.8  H30.5z M38.5,14.6c0.7,0.7,0.7,1.9,0,2.6c-0.3,0.3-0.8,0.5-1.3,0.5s-0.9-0.2-1.3-0.5l-4.6-4.6c-0.7-0.7-0.7-1.9,0-2.6  c0.7-0.7,1.9-0.7,2.6,0L38.5,14.6z M74.9,55.4c-0.5,0-0.9-0.2-1.3-0.5l-4.6-4.6c-0.7-0.7-0.7-1.9,0-2.6c0.7-0.7,1.9-0.7,2.6,0  l4.5,4.6c0.7,0.7,0.7,1.9,0,2.6C75.8,55.2,75.4,55.4,74.9,55.4z M53.8,10.9c-1,0-1.8-0.8-1.8-1.8V2.7c0-1,0.8-1.8,1.8-1.8  s1.8,0.8,1.8,1.8v6.4C55.6,10.1,54.8,10.9,53.8,10.9z"/><text x="0" y="115" fill="#000000" font-size="5px" font-weight="bold" font-family="'Helvetica Neue', Helvetica, Arial-Unicode, Arial, Sans-serif">Created by Gregor Cresnar</text><text x="0" y="120" fill="#000000" font-size="5px" font-weight="bold" font-family="'Helvetica Neue', Helvetica, Arial-Unicode, Arial, Sans-serif">from the Noun Project</text></svg>