<svg width="1014" height="906" viewBox="0 0 1014 906" fill="none" xmlns="http://www.w3.org/2000/svg">
<rect width="527" height="527" transform="translate(464.852 145.302) rotate(45)" fill="#141D4E"/>
<path d="M32.4672 0.00800037H36.8632V7.68H44.9552V0.00800037H49.3512V20H44.9552V11.376H36.8632V20H32.4672V0.00800037ZM56.3291 12.776C56.3291 13.3547 56.3851 13.924 56.4971 14.484C56.6091 15.0253 56.7957 15.52 57.0571 15.968C57.3371 16.3973 57.7011 16.7427 58.1491 17.004C58.5971 17.2653 59.1571 17.396 59.8291 17.396C60.5011 17.396 61.0611 17.2653 61.5091 17.004C61.9757 16.7427 62.3397 16.3973 62.6011 15.968C62.8811 15.52 63.0771 15.0253 63.1891 14.484C63.3011 13.924 63.3571 13.3547 63.3571 12.776C63.3571 12.1973 63.3011 11.628 63.1891 11.068C63.0771 10.508 62.8811 10.0133 62.6011 9.584C62.3397 9.15467 61.9757 8.80933 61.5091 8.548C61.0611 8.268 60.5011 8.128 59.8291 8.128C59.1571 8.128 58.5971 8.268 58.1491 8.548C57.7011 8.80933 57.3371 9.15467 57.0571 9.584C56.7957 10.0133 56.6091 10.508 56.4971 11.068C56.3851 11.628 56.3291 12.1973 56.3291 12.776ZM52.3531 12.776C52.3531 11.6187 52.5304 10.5733 52.8851 9.64C53.2397 8.688 53.7437 7.88533 54.3971 7.232C55.0504 6.56 55.8344 6.04667 56.7491 5.692C57.6637 5.31867 58.6904 5.132 59.8291 5.132C60.9677 5.132 61.9944 5.31867 62.9091 5.692C63.8424 6.04667 64.6357 6.56 65.2891 7.232C65.9424 7.88533 66.4464 8.688 66.8011 9.64C67.1557 10.5733 67.3331 11.6187 67.3331 12.776C67.3331 13.9333 67.1557 14.9787 66.8011 15.912C66.4464 16.8453 65.9424 17.648 65.2891 18.32C64.6357 18.9733 63.8424 19.4867 62.9091 19.86C61.9944 20.2147 60.9677 20.392 59.8291 20.392C58.6904 20.392 57.6637 20.2147 56.7491 19.86C55.8344 19.4867 55.0504 18.9733 54.3971 18.32C53.7437 17.648 53.2397 16.8453 52.8851 15.912C52.5304 14.9787 52.3531 13.9333 52.3531 12.776ZM86.4662 20H82.3783L79.8023 10.284H79.7463L77.2823 20H73.1663L68.5743 5.524H72.7743L75.4342 15.352H75.4902L77.8982 5.524H81.7622L84.2262 15.324H84.2822L86.9423 5.524H91.0303L86.4662 20ZM103.932 13.364C103.932 14.036 104.053 14.6053 104.296 15.072C104.539 15.5387 104.856 15.9213 105.248 16.22C105.659 16.5 106.125 16.7147 106.648 16.864C107.189 16.9947 107.759 17.06 108.356 17.06C108.748 17.06 109.168 17.032 109.616 16.976C110.064 16.9013 110.484 16.7707 110.876 16.584C111.268 16.3973 111.595 16.1453 111.856 15.828C112.117 15.492 112.248 15.072 112.248 14.568C112.248 14.0267 112.071 13.588 111.716 13.252C111.38 12.916 110.932 12.636 110.372 12.412C109.812 12.1693 109.177 11.9733 108.468 11.824C107.759 11.656 107.04 11.4693 106.312 11.264C105.565 11.0773 104.837 10.8533 104.128 10.592C103.419 10.312 102.784 9.95733 102.224 9.528C101.664 9.09867 101.207 8.56667 100.852 7.932C100.516 7.29733 100.348 6.51333 100.348 5.58C100.348 4.55333 100.563 3.66667 100.992 2.92C101.44 2.15467 102.019 1.52 102.728 1.016C103.437 0.512001 104.24 0.138667 105.136 -0.104C106.032 -0.346667 106.928 -0.468 107.824 -0.468C108.869 -0.468 109.868 -0.346667 110.82 -0.104C111.791 0.120001 112.649 0.493334 113.396 1.016C114.143 1.53867 114.731 2.21067 115.16 3.032C115.608 3.83467 115.832 4.81467 115.832 5.972H111.576C111.539 5.37467 111.408 4.88 111.184 4.488C110.979 4.096 110.699 3.788 110.344 3.564C109.989 3.34 109.579 3.18133 109.112 3.088C108.645 2.99467 108.151 2.948 107.628 2.948C107.273 2.948 106.919 2.98533 106.564 3.06C106.209 3.13467 105.883 3.26533 105.584 3.452C105.304 3.63867 105.071 3.88133 104.884 4.18C104.697 4.46 104.604 4.80533 104.604 5.216C104.604 5.608 104.679 5.92533 104.828 6.168C104.977 6.41067 105.267 6.63467 105.696 6.84C106.144 7.02667 106.751 7.232 107.516 7.456C108.3 7.66133 109.317 7.92267 110.568 8.24C110.811 8.296 111.128 8.38 111.52 8.492C111.912 8.58533 112.323 8.72533 112.752 8.912C113.2 9.08 113.639 9.304 114.068 9.584C114.516 9.864 114.917 10.2093 115.272 10.62C115.645 11.0307 115.944 11.5253 116.168 12.104C116.392 12.664 116.504 13.3173 116.504 14.064C116.504 14.9787 116.327 15.828 115.972 16.612C115.617 17.396 115.085 18.0773 114.376 18.656C113.685 19.216 112.817 19.664 111.772 20C110.745 20.3173 109.551 20.476 108.188 20.476C107.087 20.476 106.013 20.336 104.968 20.056C103.941 19.776 103.036 19.3467 102.252 18.768C101.468 18.1893 100.833 17.452 100.348 16.556C99.8812 15.66 99.6572 14.596 99.6759 13.364H103.932ZM123.739 5.524H126.651V8.184H123.739V15.352C123.739 16.024 123.852 16.472 124.076 16.696C124.299 16.92 124.747 17.032 125.419 17.032C125.867 17.032 126.278 16.9947 126.651 16.92V20.028C126.315 20.084 125.942 20.1213 125.532 20.14C125.121 20.1587 124.719 20.168 124.327 20.168C123.712 20.168 123.124 20.1213 122.564 20.028C122.022 19.9533 121.537 19.7947 121.108 19.552C120.697 19.2907 120.37 18.936 120.127 18.488C119.885 18.04 119.764 17.452 119.764 16.724V8.184H117.356V5.524H119.764V1.184H123.739V5.524ZM128.543 5.524H132.323V8.212H132.379C132.566 7.764 132.818 7.35333 133.135 6.98C133.453 6.588 133.817 6.26133 134.227 6C134.638 5.72 135.077 5.50533 135.543 5.356C136.029 5.20667 136.514 5.132 136.999 5.132C137.298 5.132 137.587 5.17867 137.867 5.272V8.968C137.681 8.93067 137.457 8.90267 137.195 8.884C136.934 8.84667 136.682 8.828 136.439 8.828C135.711 8.828 135.095 8.94933 134.591 9.192C134.087 9.43467 133.677 9.77067 133.359 10.2C133.061 10.6107 132.846 11.1053 132.715 11.684C132.585 12.244 132.519 12.8413 132.519 13.476V20H128.543V5.524ZM139.258 9.976C139.314 9.04267 139.547 8.268 139.958 7.652C140.369 7.036 140.891 6.54133 141.526 6.168C142.161 5.79467 142.87 5.53333 143.654 5.384C144.438 5.216 145.241 5.132 146.062 5.132C146.79 5.132 147.527 5.188 148.274 5.3C149.021 5.39333 149.702 5.58933 150.318 5.888C150.934 6.18667 151.438 6.60667 151.83 7.148C152.222 7.68933 152.418 8.38933 152.418 9.248V16.78C152.418 17.4333 152.455 18.0587 152.53 18.656C152.605 19.2533 152.735 19.7013 152.922 20H148.89C148.815 19.776 148.75 19.552 148.694 19.328C148.657 19.0853 148.629 18.8427 148.61 18.6C147.975 19.2533 147.229 19.72 146.37 20C145.511 20.2613 144.634 20.392 143.738 20.392C143.047 20.392 142.403 20.2987 141.806 20.112C141.209 19.944 140.686 19.6827 140.238 19.328C139.79 18.9733 139.435 18.5253 139.174 17.984C138.931 17.4427 138.81 16.7987 138.81 16.052C138.81 15.2307 138.95 14.5587 139.23 14.036C139.51 13.4947 139.883 13.0653 140.35 12.748C140.817 12.4307 141.339 12.1973 141.918 12.048C142.515 11.88 143.122 11.7493 143.738 11.656C144.354 11.5627 144.942 11.488 145.502 11.432C146.062 11.376 146.557 11.292 146.986 11.18C147.434 11.068 147.789 10.9093 148.05 10.704C148.311 10.48 148.442 10.1627 148.442 9.752C148.442 9.32267 148.367 8.98667 148.218 8.744C148.087 8.48267 147.901 8.28667 147.658 8.156C147.434 8.00667 147.163 7.91333 146.846 7.876C146.547 7.82 146.221 7.792 145.866 7.792C145.101 7.792 144.485 7.96 144.018 8.296C143.57 8.632 143.309 9.192 143.234 9.976H139.258ZM148.442 12.916C148.274 13.0653 148.059 13.1867 147.798 13.28C147.555 13.3547 147.285 13.42 146.986 13.476C146.706 13.532 146.398 13.5787 146.062 13.616C145.745 13.6533 145.437 13.7 145.138 13.756C144.821 13.812 144.522 13.8867 144.242 13.98C143.962 14.0733 143.71 14.204 143.486 14.372C143.281 14.5213 143.113 14.7267 142.982 14.988C142.851 15.2307 142.786 15.5293 142.786 15.884C142.786 16.2573 142.851 16.5653 142.982 16.808C143.113 17.032 143.29 17.2187 143.514 17.368C143.738 17.4987 143.999 17.592 144.298 17.648C144.597 17.704 144.905 17.732 145.222 17.732C146.006 17.732 146.613 17.6013 147.042 17.34C147.471 17.0787 147.789 16.7707 147.994 16.416C148.199 16.0427 148.321 15.6693 148.358 15.296C148.414 14.9227 148.442 14.624 148.442 14.4V12.916ZM160.544 5.524H163.456V8.184H160.544V15.352C160.544 16.024 160.656 16.472 160.88 16.696C161.104 16.92 161.552 17.032 162.224 17.032C162.672 17.032 163.083 16.9947 163.456 16.92V20.028C163.12 20.084 162.747 20.1213 162.336 20.14C161.926 20.1587 161.524 20.168 161.132 20.168C160.516 20.168 159.928 20.1213 159.368 20.028C158.827 19.9533 158.342 19.7947 157.912 19.552C157.502 19.2907 157.175 18.936 156.932 18.488C156.69 18.04 156.568 17.452 156.568 16.724V8.184H154.16V5.524H156.568V1.184H160.544V5.524ZM175.092 11.208C174.905 10.2 174.569 9.43467 174.084 8.912C173.617 8.38933 172.899 8.128 171.928 8.128C171.293 8.128 170.761 8.24 170.332 8.464C169.921 8.66933 169.585 8.93067 169.324 9.248C169.081 9.56533 168.904 9.90133 168.792 10.256C168.699 10.6107 168.643 10.928 168.624 11.208H175.092ZM168.624 13.728C168.68 14.9973 169.007 15.9307 169.604 16.528C170.201 17.1067 171.06 17.396 172.18 17.396C172.983 17.396 173.673 17.2 174.252 16.808C174.831 16.3973 175.185 15.968 175.316 15.52H178.816C178.256 17.2373 177.397 18.4787 176.24 19.244C175.083 20.0093 173.683 20.392 172.04 20.392C170.901 20.392 169.875 20.2053 168.96 19.832C168.045 19.4587 167.271 18.936 166.636 18.264C166.001 17.592 165.507 16.7893 165.152 15.856C164.816 14.9227 164.648 13.896 164.648 12.776C164.648 11.6933 164.825 10.6853 165.18 9.752C165.535 8.81867 166.039 8.016 166.692 7.344C167.345 6.65333 168.12 6.112 169.016 5.72C169.931 5.328 170.939 5.132 172.04 5.132C173.272 5.132 174.345 5.37467 175.26 5.86C176.175 6.32667 176.921 6.96133 177.5 7.764C178.097 8.56667 178.527 9.48133 178.788 10.508C179.049 11.5347 179.143 12.608 179.068 13.728H168.624ZM188.174 16.584C188.734 16.584 189.229 16.472 189.658 16.248C190.087 16.024 190.442 15.7253 190.722 15.352C191.002 14.9787 191.207 14.5587 191.338 14.092C191.487 13.6067 191.562 13.1027 191.562 12.58C191.562 12.0013 191.506 11.4413 191.394 10.9C191.282 10.3587 191.095 9.88267 190.834 9.472C190.573 9.06133 190.218 8.73467 189.77 8.492C189.341 8.24933 188.809 8.128 188.174 8.128C187.614 8.128 187.129 8.24 186.718 8.464C186.326 8.688 185.99 8.996 185.71 9.388C185.449 9.76133 185.253 10.2 185.122 10.704C185.01 11.1893 184.954 11.7027 184.954 12.244C184.954 12.7667 185.001 13.2893 185.094 13.812C185.206 14.316 185.383 14.7733 185.626 15.184C185.887 15.5947 186.223 15.9307 186.634 16.192C187.045 16.4533 187.558 16.584 188.174 16.584ZM195.342 19.076C195.342 19.468 195.305 19.8973 195.23 20.364C195.174 20.8493 195.053 21.3253 194.866 21.792C194.679 22.2773 194.418 22.7347 194.082 23.164C193.746 23.612 193.298 24.004 192.738 24.34C192.178 24.6947 191.497 24.9747 190.694 25.18C189.891 25.3853 188.939 25.488 187.838 25.488C187.129 25.488 186.401 25.3947 185.654 25.208C184.926 25.04 184.254 24.7693 183.638 24.396C183.041 24.0227 182.537 23.5373 182.126 22.94C181.734 22.3613 181.51 21.6613 181.454 20.84H185.402C185.589 21.5867 185.953 22.1 186.494 22.38C187.035 22.6787 187.661 22.828 188.37 22.828C189.471 22.828 190.283 22.492 190.806 21.82C191.329 21.148 191.581 20.2893 191.562 19.244V17.34H191.506C191.077 18.1053 190.461 18.6747 189.658 19.048C188.874 19.4027 188.043 19.58 187.166 19.58C186.083 19.58 185.15 19.3933 184.366 19.02C183.582 18.628 182.938 18.1053 182.434 17.452C181.93 16.78 181.557 16.0053 181.314 15.128C181.09 14.232 180.978 13.2893 180.978 12.3C180.978 11.3667 181.109 10.4707 181.37 9.612C181.65 8.73467 182.051 7.96933 182.574 7.316C183.097 6.644 183.741 6.112 184.506 5.72C185.29 5.328 186.186 5.132 187.194 5.132C188.146 5.132 188.977 5.30933 189.686 5.664C190.414 6.01867 191.021 6.616 191.506 7.456H191.562V5.524H195.342V19.076ZM205.683 21.82C205.254 22.9773 204.657 23.808 203.891 24.312C203.126 24.8347 202.062 25.096 200.699 25.096C200.289 25.096 199.878 25.0773 199.467 25.04C199.075 25.0213 198.674 24.9933 198.263 24.956V21.68C198.637 21.7173 199.019 21.7547 199.411 21.792C199.803 21.8293 200.195 21.8387 200.587 21.82C200.923 21.7827 201.203 21.6707 201.427 21.484C201.67 21.316 201.847 21.1013 201.959 20.84C202.071 20.5787 202.127 20.2987 202.127 20C202.127 19.6827 202.071 19.384 201.959 19.104L196.863 5.524H201.119L204.395 15.436H204.451L207.615 5.524H211.731L205.683 21.82ZM220.688 9.976C220.744 9.04267 220.977 8.268 221.388 7.652C221.798 7.036 222.321 6.54133 222.956 6.168C223.59 5.79467 224.3 5.53333 225.084 5.384C225.868 5.216 226.67 5.132 227.492 5.132C228.22 5.132 228.957 5.188 229.704 5.3C230.45 5.39333 231.132 5.58933 231.748 5.888C232.364 6.18667 232.868 6.60667 233.26 7.148C233.652 7.68933 233.848 8.38933 233.848 9.248V16.78C233.848 17.4333 233.885 18.0587 233.96 18.656C234.034 19.2533 234.165 19.7013 234.352 20H230.32C230.245 19.776 230.18 19.552 230.124 19.328C230.086 19.0853 230.058 18.8427 230.04 18.6C229.405 19.2533 228.658 19.72 227.8 20C226.941 20.2613 226.064 20.392 225.168 20.392C224.477 20.392 223.833 20.2987 223.236 20.112C222.638 19.944 222.116 19.6827 221.668 19.328C221.22 18.9733 220.865 18.5253 220.604 17.984C220.361 17.4427 220.24 16.7987 220.24 16.052C220.24 15.2307 220.38 14.5587 220.66 14.036C220.94 13.4947 221.313 13.0653 221.78 12.748C222.246 12.4307 222.769 12.1973 223.348 12.048C223.945 11.88 224.552 11.7493 225.168 11.656C225.784 11.5627 226.372 11.488 226.932 11.432C227.492 11.376 227.986 11.292 228.416 11.18C228.864 11.068 229.218 10.9093 229.48 10.704C229.741 10.48 229.872 10.1627 229.872 9.752C229.872 9.32267 229.797 8.98667 229.648 8.744C229.517 8.48267 229.33 8.28667 229.088 8.156C228.864 8.00667 228.593 7.91333 228.276 7.876C227.977 7.82 227.65 7.792 227.296 7.792C226.53 7.792 225.914 7.96 225.448 8.296C225 8.632 224.738 9.192 224.664 9.976H220.688ZM229.872 12.916C229.704 13.0653 229.489 13.1867 229.228 13.28C228.985 13.3547 228.714 13.42 228.416 13.476C228.136 13.532 227.828 13.5787 227.492 13.616C227.174 13.6533 226.866 13.7 226.568 13.756C226.25 13.812 225.952 13.8867 225.672 13.98C225.392 14.0733 225.14 14.204 224.916 14.372C224.71 14.5213 224.542 14.7267 224.412 14.988C224.281 15.2307 224.216 15.5293 224.216 15.884C224.216 16.2573 224.281 16.5653 224.412 16.808C224.542 17.032 224.72 17.2187 224.944 17.368C225.168 17.4987 225.429 17.592 225.728 17.648C226.026 17.704 226.334 17.732 226.652 17.732C227.436 17.732 228.042 17.6013 228.472 17.34C228.901 17.0787 229.218 16.7707 229.424 16.416C229.629 16.0427 229.75 15.6693 229.788 15.296C229.844 14.9227 229.872 14.624 229.872 14.4V12.916ZM236.934 5.524H240.714V7.54H240.798C241.302 6.71867 241.955 6.112 242.758 5.72C243.561 5.328 244.382 5.132 245.222 5.132C246.286 5.132 247.154 5.28133 247.826 5.58C248.517 5.86 249.058 6.26133 249.45 6.784C249.842 7.288 250.113 7.91333 250.262 8.66C250.43 9.388 250.514 10.2 250.514 11.096V20H246.538V11.824C246.538 10.6293 246.342 9.74267 245.95 9.164C245.577 8.56667 244.923 8.268 243.99 8.268C242.907 8.268 242.123 8.59467 241.638 9.248C241.153 9.88267 240.91 10.9373 240.91 12.412V20H236.934V5.524ZM263.808 12.72C263.808 12.1413 263.752 11.572 263.64 11.012C263.528 10.452 263.332 9.96667 263.052 9.556C262.79 9.12667 262.436 8.78133 261.988 8.52C261.558 8.25867 261.026 8.128 260.392 8.128C259.738 8.128 259.188 8.25867 258.74 8.52C258.292 8.78133 257.928 9.12667 257.648 9.556C257.386 9.98533 257.19 10.48 257.06 11.04C256.948 11.5813 256.892 12.1507 256.892 12.748C256.892 13.308 256.957 13.868 257.088 14.428C257.218 14.988 257.424 15.492 257.704 15.94C258.002 16.3693 258.366 16.724 258.796 17.004C259.244 17.2653 259.776 17.396 260.392 17.396C261.045 17.396 261.586 17.2653 262.016 17.004C262.464 16.7427 262.818 16.3973 263.08 15.968C263.341 15.52 263.528 15.016 263.64 14.456C263.752 13.896 263.808 13.3173 263.808 12.72ZM263.864 18.152H263.808C263.341 18.936 262.725 19.5053 261.96 19.86C261.194 20.2147 260.345 20.392 259.412 20.392C258.31 20.392 257.349 20.1773 256.528 19.748C255.725 19.3187 255.053 18.7493 254.512 18.04C253.989 17.312 253.588 16.4813 253.308 15.548C253.046 14.6147 252.916 13.644 252.916 12.636C252.916 11.6653 253.046 10.732 253.308 9.836C253.588 8.92133 253.989 8.11867 254.512 7.428C255.053 6.73733 255.725 6.18667 256.528 5.776C257.33 5.34667 258.264 5.132 259.328 5.132C260.186 5.132 260.998 5.31867 261.764 5.692C262.548 6.04667 263.164 6.57867 263.612 7.288H263.668V0.00800037H267.644V20H263.864V18.152ZM6.62162 37.704H0.629625V34.008H17.0096V37.704H11.0176V54H6.62162V37.704ZM27.0802 45.208C26.8936 44.2 26.5576 43.4347 26.0722 42.912C25.6056 42.3893 24.8869 42.128 23.9162 42.128C23.2816 42.128 22.7496 42.24 22.3202 42.464C21.9096 42.6693 21.5736 42.9307 21.3122 43.248C21.0696 43.5653 20.8922 43.9013 20.7802 44.256C20.6869 44.6107 20.6309 44.928 20.6122 45.208H27.0802ZM20.6122 47.728C20.6682 48.9973 20.9949 49.9307 21.5922 50.528C22.1896 51.1067 23.0482 51.396 24.1682 51.396C24.9709 51.396 25.6616 51.2 26.2402 50.808C26.8189 50.3973 27.1736 49.968 27.3042 49.52H30.8042C30.2442 51.2373 29.3856 52.4787 28.2282 53.244C27.0709 54.0093 25.6709 54.392 24.0282 54.392C22.8896 54.392 21.8629 54.2053 20.9482 53.832C20.0336 53.4587 19.2589 52.936 18.6242 52.264C17.9896 51.592 17.4949 50.7893 17.1402 49.856C16.8042 48.9227 16.6362 47.896 16.6362 46.776C16.6362 45.6933 16.8136 44.6853 17.1682 43.752C17.5229 42.8187 18.0269 42.016 18.6802 41.344C19.3336 40.6533 20.1082 40.112 21.0042 39.72C21.9189 39.328 22.9269 39.132 24.0282 39.132C25.2602 39.132 26.3336 39.3747 27.2482 39.86C28.1629 40.3267 28.9096 40.9613 29.4882 41.764C30.0856 42.5667 30.5149 43.4813 30.7762 44.508C31.0376 45.5347 31.1309 46.608 31.0562 47.728H20.6122ZM41.7117 44.62C41.4504 42.9587 40.4704 42.128 38.7717 42.128C38.1371 42.128 37.6051 42.2773 37.1758 42.576C36.7464 42.856 36.3918 43.2293 36.1118 43.696C35.8504 44.144 35.6638 44.648 35.5518 45.208C35.4398 45.768 35.3838 46.3093 35.3838 46.832C35.3838 47.3547 35.4398 47.8867 35.5518 48.428C35.6638 48.9693 35.8411 49.464 36.0837 49.912C36.3451 50.3413 36.6904 50.696 37.1197 50.976C37.5491 51.256 38.0717 51.396 38.6878 51.396C39.6211 51.396 40.3491 51.1347 40.8717 50.612C41.3944 50.0707 41.7211 49.352 41.8518 48.456H45.6877C45.4264 50.3787 44.6797 51.8533 43.4477 52.88C42.2158 53.888 40.6384 54.392 38.7157 54.392C37.6144 54.392 36.6157 54.2147 35.7198 53.86C34.8237 53.4867 34.0584 52.9733 33.4237 52.32C32.7891 51.648 32.2944 50.864 31.9398 49.968C31.5851 49.0533 31.4077 48.0547 31.4077 46.972C31.4077 45.852 31.5664 44.816 31.8837 43.864C32.2197 42.8933 32.7051 42.0627 33.3398 41.372C33.9744 40.6627 34.7491 40.112 35.6637 39.72C36.5784 39.328 37.6237 39.132 38.7997 39.132C39.6584 39.132 40.4797 39.244 41.2637 39.468C42.0664 39.692 42.7757 40.0373 43.3917 40.504C44.0078 40.952 44.5118 41.5213 44.9037 42.212C45.3144 42.9027 45.5478 43.7053 45.6038 44.62H41.7117ZM47.9339 34.008H51.9099V41.54H51.9939C52.4979 40.7187 53.1419 40.112 53.9259 39.72C54.7099 39.328 55.4752 39.132 56.2219 39.132C57.2859 39.132 58.1539 39.2813 58.8259 39.58C59.5165 39.86 60.0579 40.2613 60.4499 40.784C60.8419 41.288 61.1125 41.9133 61.2619 42.66C61.4299 43.388 61.5139 44.2 61.5139 45.096V54H57.5379V45.824C57.5379 44.6293 57.3419 43.7427 56.9499 43.164C56.5765 42.5667 55.9232 42.268 54.9899 42.268C53.9072 42.268 53.1232 42.5947 52.6379 43.248C52.1525 43.8827 51.9099 44.9373 51.9099 46.412V54H47.9339V34.008ZM64.5315 39.524H68.3115V41.54H68.3955C68.8995 40.7187 69.5529 40.112 70.3555 39.72C71.1582 39.328 71.9795 39.132 72.8195 39.132C73.8835 39.132 74.7515 39.2813 75.4235 39.58C76.1142 39.86 76.6555 40.2613 77.0475 40.784C77.4395 41.288 77.7102 41.9133 77.8595 42.66C78.0275 43.388 78.1115 44.2 78.1115 45.096V54H74.1355V45.824C74.1355 44.6293 73.9395 43.7427 73.5475 43.164C73.1742 42.5667 72.5209 42.268 71.5875 42.268C70.5049 42.268 69.7209 42.5947 69.2355 43.248C68.7502 43.8827 68.5075 44.9373 68.5075 46.412V54H64.5315V39.524ZM84.6572 46.776C84.6572 47.3547 84.7132 47.924 84.8252 48.484C84.9372 49.0253 85.1239 49.52 85.3852 49.968C85.6652 50.3973 86.0292 50.7427 86.4772 51.004C86.9252 51.2653 87.4852 51.396 88.1572 51.396C88.8292 51.396 89.3892 51.2653 89.8372 51.004C90.3039 50.7427 90.6679 50.3973 90.9292 49.968C91.2092 49.52 91.4052 49.0253 91.5172 48.484C91.6292 47.924 91.6852 47.3547 91.6852 46.776C91.6852 46.1973 91.6292 45.628 91.5172 45.068C91.4052 44.508 91.2092 44.0133 90.9292 43.584C90.6679 43.1547 90.3039 42.8093 89.8372 42.548C89.3892 42.268 88.8292 42.128 88.1572 42.128C87.4852 42.128 86.9252 42.268 86.4772 42.548C86.0292 42.8093 85.6652 43.1547 85.3852 43.584C85.1239 44.0133 84.9372 44.508 84.8252 45.068C84.7132 45.628 84.6572 46.1973 84.6572 46.776ZM80.6812 46.776C80.6812 45.6187 80.8585 44.5733 81.2132 43.64C81.5679 42.688 82.0719 41.8853 82.7252 41.232C83.3785 40.56 84.1625 40.0467 85.0772 39.692C85.9919 39.3187 87.0185 39.132 88.1572 39.132C89.2959 39.132 90.3225 39.3187 91.2372 39.692C92.1705 40.0467 92.9639 40.56 93.6172 41.232C94.2705 41.8853 94.7745 42.688 95.1292 43.64C95.4839 44.5733 95.6612 45.6187 95.6612 46.776C95.6612 47.9333 95.4839 48.9787 95.1292 49.912C94.7745 50.8453 94.2705 51.648 93.6172 52.32C92.9639 52.9733 92.1705 53.4867 91.2372 53.86C90.3225 54.2147 89.2959 54.392 88.1572 54.392C87.0185 54.392 85.9919 54.2147 85.0772 53.86C84.1625 53.4867 83.3785 52.9733 82.7252 52.32C82.0719 51.648 81.5679 50.8453 81.2132 49.912C80.8585 48.9787 80.6812 47.9333 80.6812 46.776ZM98.3584 34.008H102.334V54H98.3584V34.008ZM108.993 46.776C108.993 47.3547 109.049 47.924 109.161 48.484C109.273 49.0253 109.46 49.52 109.721 49.968C110.001 50.3973 110.365 50.7427 110.813 51.004C111.261 51.2653 111.821 51.396 112.493 51.396C113.165 51.396 113.725 51.2653 114.173 51.004C114.64 50.7427 115.004 50.3973 115.265 49.968C115.545 49.52 115.741 49.0253 115.853 48.484C115.965 47.924 116.021 47.3547 116.021 46.776C116.021 46.1973 115.965 45.628 115.853 45.068C115.741 44.508 115.545 44.0133 115.265 43.584C115.004 43.1547 114.64 42.8093 114.173 42.548C113.725 42.268 113.165 42.128 112.493 42.128C111.821 42.128 111.261 42.268 110.813 42.548C110.365 42.8093 110.001 43.1547 109.721 43.584C109.46 44.0133 109.273 44.508 109.161 45.068C109.049 45.628 108.993 46.1973 108.993 46.776ZM105.017 46.776C105.017 45.6187 105.194 44.5733 105.549 43.64C105.904 42.688 106.408 41.8853 107.061 41.232C107.714 40.56 108.498 40.0467 109.413 39.692C110.328 39.3187 111.354 39.132 112.493 39.132C113.632 39.132 114.658 39.3187 115.573 39.692C116.506 40.0467 117.3 40.56 117.953 41.232C118.606 41.8853 119.11 42.688 119.465 43.64C119.82 44.5733 119.997 45.6187 119.997 46.776C119.997 47.9333 119.82 48.9787 119.465 49.912C119.11 50.8453 118.606 51.648 117.953 52.32C117.3 52.9733 116.506 53.4867 115.573 53.86C114.658 54.2147 113.632 54.392 112.493 54.392C111.354 54.392 110.328 54.2147 109.413 53.86C108.498 53.4867 107.714 52.9733 107.061 52.32C106.408 51.648 105.904 50.8453 105.549 49.912C105.194 48.9787 105.017 47.9333 105.017 46.776ZM129.33 50.584C129.89 50.584 130.385 50.472 130.814 50.248C131.244 50.024 131.598 49.7253 131.878 49.352C132.158 48.9787 132.364 48.5587 132.494 48.092C132.644 47.6067 132.718 47.1027 132.718 46.58C132.718 46.0013 132.662 45.4413 132.55 44.9C132.438 44.3587 132.252 43.8827 131.99 43.472C131.729 43.0613 131.374 42.7347 130.926 42.492C130.497 42.2493 129.965 42.128 129.33 42.128C128.77 42.128 128.285 42.24 127.874 42.464C127.482 42.688 127.146 42.996 126.866 43.388C126.605 43.7613 126.409 44.2 126.278 44.704C126.166 45.1893 126.11 45.7027 126.11 46.244C126.11 46.7667 126.157 47.2893 126.25 47.812C126.362 48.316 126.54 48.7733 126.782 49.184C127.044 49.5947 127.38 49.9307 127.79 50.192C128.201 50.4533 128.714 50.584 129.33 50.584ZM136.498 53.076C136.498 53.468 136.461 53.8973 136.386 54.364C136.33 54.8493 136.209 55.3253 136.022 55.792C135.836 56.2773 135.574 56.7347 135.238 57.164C134.902 57.612 134.454 58.004 133.894 58.34C133.334 58.6947 132.653 58.9747 131.85 59.18C131.048 59.3853 130.096 59.488 128.994 59.488C128.285 59.488 127.557 59.3947 126.81 59.208C126.082 59.04 125.41 58.7693 124.794 58.396C124.197 58.0227 123.693 57.5373 123.282 56.94C122.89 56.3613 122.666 55.6613 122.61 54.84H126.558C126.745 55.5867 127.109 56.1 127.65 56.38C128.192 56.6787 128.817 56.828 129.526 56.828C130.628 56.828 131.44 56.492 131.962 55.82C132.485 55.148 132.737 54.2893 132.718 53.244V51.34H132.662C132.233 52.1053 131.617 52.6747 130.814 53.048C130.03 53.4027 129.2 53.58 128.322 53.58C127.24 53.58 126.306 53.3933 125.522 53.02C124.738 52.628 124.094 52.1053 123.59 51.452C123.086 50.78 122.713 50.0053 122.47 49.128C122.246 48.232 122.134 47.2893 122.134 46.3C122.134 45.3667 122.265 44.4707 122.526 43.612C122.806 42.7347 123.208 41.9693 123.73 41.316C124.253 40.644 124.897 40.112 125.662 39.72C126.446 39.328 127.342 39.132 128.35 39.132C129.302 39.132 130.133 39.3093 130.842 39.664C131.57 40.0187 132.177 40.616 132.662 41.456H132.718V39.524H136.498V53.076ZM146.839 55.82C146.41 56.9773 145.813 57.808 145.048 58.312C144.282 58.8347 143.218 59.096 141.855 59.096C141.445 59.096 141.034 59.0773 140.623 59.04C140.231 59.0213 139.83 58.9933 139.419 58.956V55.68C139.793 55.7173 140.176 55.7547 140.568 55.792C140.959 55.8293 141.352 55.8387 141.744 55.82C142.079 55.7827 142.359 55.6707 142.584 55.484C142.826 55.316 143.004 55.1013 143.115 54.84C143.227 54.5787 143.283 54.2987 143.283 54C143.283 53.6827 143.227 53.384 143.115 53.104L138.019 39.524H142.275L145.552 49.436H145.607L148.771 39.524H152.887L146.839 55.82ZM166.828 50.304H170.748C171.383 50.304 171.999 50.2013 172.596 49.996C173.193 49.7907 173.725 49.4547 174.192 48.988C174.659 48.5027 175.032 47.8773 175.312 47.112C175.592 46.3467 175.732 45.4133 175.732 44.312C175.732 43.304 175.629 42.3987 175.424 41.596C175.237 40.7747 174.92 40.0747 174.472 39.496C174.024 38.9173 173.427 38.4787 172.68 38.18C171.952 37.8627 171.047 37.704 169.964 37.704H166.828V50.304ZM162.432 34.008H171.056C172.344 34.008 173.539 34.2133 174.64 34.624C175.76 35.0347 176.721 35.6507 177.524 36.472C178.345 37.2933 178.98 38.32 179.428 39.552C179.895 40.784 180.128 42.2307 180.128 43.892C180.128 45.348 179.941 46.692 179.568 47.924C179.195 49.156 178.625 50.22 177.86 51.116C177.113 52.012 176.171 52.7213 175.032 53.244C173.912 53.748 172.587 54 171.056 54H162.432V34.008ZM192.51 45.208C192.323 44.2 191.987 43.4347 191.502 42.912C191.035 42.3893 190.317 42.128 189.346 42.128C188.711 42.128 188.179 42.24 187.75 42.464C187.339 42.6693 187.003 42.9307 186.742 43.248C186.499 43.5653 186.322 43.9013 186.21 44.256C186.117 44.6107 186.061 44.928 186.042 45.208H192.51ZM186.042 47.728C186.098 48.9973 186.425 49.9307 187.022 50.528C187.619 51.1067 188.478 51.396 189.598 51.396C190.401 51.396 191.091 51.2 191.67 50.808C192.249 50.3973 192.603 49.968 192.734 49.52H196.234C195.674 51.2373 194.815 52.4787 193.658 53.244C192.501 54.0093 191.101 54.392 189.458 54.392C188.319 54.392 187.293 54.2053 186.378 53.832C185.463 53.4587 184.689 52.936 184.054 52.264C183.419 51.592 182.925 50.7893 182.57 49.856C182.234 48.9227 182.066 47.896 182.066 46.776C182.066 45.6933 182.243 44.6853 182.598 43.752C182.953 42.8187 183.457 42.016 184.11 41.344C184.763 40.6533 185.538 40.112 186.434 39.72C187.349 39.328 188.357 39.132 189.458 39.132C190.69 39.132 191.763 39.3747 192.678 39.86C193.593 40.3267 194.339 40.9613 194.918 41.764C195.515 42.5667 195.945 43.4813 196.206 44.508C196.467 45.5347 196.561 46.608 196.486 47.728H186.042ZM203.884 39.524H206.796V42.184H203.884V49.352C203.884 50.024 203.996 50.472 204.22 50.696C204.444 50.92 204.892 51.032 205.564 51.032C206.012 51.032 206.423 50.9947 206.796 50.92V54.028C206.46 54.084 206.087 54.1213 205.676 54.14C205.265 54.1587 204.864 54.168 204.472 54.168C203.856 54.168 203.268 54.1213 202.708 54.028C202.167 53.9533 201.681 53.7947 201.252 53.552C200.841 53.2907 200.515 52.936 200.272 52.488C200.029 52.04 199.908 51.452 199.908 50.724V42.184H197.5V39.524H199.908V35.184H203.884V39.524ZM218.432 45.208C218.245 44.2 217.909 43.4347 217.424 42.912C216.957 42.3893 216.238 42.128 215.268 42.128C214.633 42.128 214.101 42.24 213.672 42.464C213.261 42.6693 212.925 42.9307 212.664 43.248C212.421 43.5653 212.244 43.9013 212.132 44.256C212.038 44.6107 211.982 44.928 211.964 45.208H218.432ZM211.964 47.728C212.02 48.9973 212.346 49.9307 212.944 50.528C213.541 51.1067 214.4 51.396 215.52 51.396C216.322 51.396 217.013 51.2 217.592 50.808C218.17 50.3973 218.525 49.968 218.656 49.52H222.156C221.596 51.2373 220.737 52.4787 219.58 53.244C218.422 54.0093 217.022 54.392 215.38 54.392C214.241 54.392 213.214 54.2053 212.3 53.832C211.385 53.4587 210.61 52.936 209.976 52.264C209.341 51.592 208.846 50.7893 208.492 49.856C208.156 48.9227 207.988 47.896 207.988 46.776C207.988 45.6933 208.165 44.6853 208.52 43.752C208.874 42.8187 209.378 42.016 210.032 41.344C210.685 40.6533 211.46 40.112 212.356 39.72C213.27 39.328 214.278 39.132 215.38 39.132C216.612 39.132 217.685 39.3747 218.6 39.86C219.514 40.3267 220.261 40.9613 220.84 41.764C221.437 42.5667 221.866 43.4813 222.128 44.508C222.389 45.5347 222.482 46.608 222.408 47.728H211.964ZM224.766 39.524H228.546V42.212H228.602C228.789 41.764 229.041 41.3533 229.358 40.98C229.675 40.588 230.039 40.2613 230.45 40C230.861 39.72 231.299 39.5053 231.766 39.356C232.251 39.2067 232.737 39.132 233.222 39.132C233.521 39.132 233.81 39.1787 234.09 39.272V42.968C233.903 42.9307 233.679 42.9027 233.418 42.884C233.157 42.8467 232.905 42.828 232.662 42.828C231.934 42.828 231.318 42.9493 230.814 43.192C230.31 43.4347 229.899 43.7707 229.582 44.2C229.283 44.6107 229.069 45.1053 228.938 45.684C228.807 46.244 228.742 46.8413 228.742 47.476V54H224.766V39.524ZM235.761 39.524H239.513V41.484H239.569C240.091 40.7373 240.717 40.1587 241.445 39.748C242.191 39.3373 243.041 39.132 243.993 39.132C244.907 39.132 245.738 39.3187 246.485 39.692C247.25 40.0467 247.829 40.6627 248.221 41.54C248.65 40.9053 249.229 40.3453 249.957 39.86C250.703 39.3747 251.581 39.132 252.589 39.132C253.354 39.132 254.063 39.2253 254.717 39.412C255.37 39.5987 255.93 39.8973 256.397 40.308C256.863 40.7187 257.227 41.26 257.489 41.932C257.75 42.5853 257.881 43.3787 257.881 44.312V54H253.905V45.796C253.905 45.3107 253.886 44.8533 253.849 44.424C253.811 43.9947 253.709 43.6213 253.541 43.304C253.373 42.9867 253.121 42.7347 252.785 42.548C252.467 42.3613 252.029 42.268 251.469 42.268C250.909 42.268 250.451 42.38 250.097 42.604C249.761 42.8093 249.49 43.0893 249.285 43.444C249.098 43.78 248.967 44.172 248.893 44.62C248.837 45.0493 248.809 45.488 248.809 45.936V54H244.833V45.88C244.833 45.4693 244.823 45.0493 244.805 44.62C244.786 44.1907 244.702 43.7987 244.553 43.444C244.422 43.0893 244.189 42.8093 243.853 42.604C243.535 42.38 243.059 42.268 242.425 42.268C242.219 42.268 241.967 42.3147 241.669 42.408C241.37 42.4827 241.071 42.6413 240.773 42.884C240.493 43.108 240.25 43.444 240.045 43.892C239.839 44.3213 239.737 44.8907 239.737 45.6V54H235.761V39.524ZM265.112 37.284H261.136V34.008H265.112V37.284ZM261.136 39.524H265.112V54H261.136V39.524ZM268.242 39.524H272.022V41.54H272.106C272.61 40.7187 273.264 40.112 274.066 39.72C274.869 39.328 275.69 39.132 276.53 39.132C277.594 39.132 278.462 39.2813 279.134 39.58C279.825 39.86 280.366 40.2613 280.758 40.784C281.15 41.288 281.421 41.9133 281.57 42.66C281.738 43.388 281.822 44.2 281.822 45.096V54H277.846V45.824C277.846 44.6293 277.65 43.7427 277.258 43.164C276.885 42.5667 276.232 42.268 275.298 42.268C274.216 42.268 273.432 42.5947 272.946 43.248C272.461 43.8827 272.218 44.9373 272.218 46.412V54H268.242V39.524ZM294.584 45.208C294.397 44.2 294.061 43.4347 293.576 42.912C293.109 42.3893 292.391 42.128 291.42 42.128C290.785 42.128 290.253 42.24 289.824 42.464C289.413 42.6693 289.077 42.9307 288.816 43.248C288.573 43.5653 288.396 43.9013 288.284 44.256C288.191 44.6107 288.135 44.928 288.116 45.208H294.584ZM288.116 47.728C288.172 48.9973 288.499 49.9307 289.096 50.528C289.693 51.1067 290.552 51.396 291.672 51.396C292.475 51.396 293.165 51.2 293.744 50.808C294.323 50.3973 294.677 49.968 294.808 49.52H298.308C297.748 51.2373 296.889 52.4787 295.732 53.244C294.575 54.0093 293.175 54.392 291.532 54.392C290.393 54.392 289.367 54.2053 288.452 53.832C287.537 53.4587 286.763 52.936 286.128 52.264C285.493 51.592 284.999 50.7893 284.644 49.856C284.308 48.9227 284.14 47.896 284.14 46.776C284.14 45.6933 284.317 44.6853 284.672 43.752C285.027 42.8187 285.531 42.016 286.184 41.344C286.837 40.6533 287.612 40.112 288.508 39.72C289.423 39.328 290.431 39.132 291.532 39.132C292.764 39.132 293.837 39.3747 294.752 39.86C295.667 40.3267 296.413 40.9613 296.992 41.764C297.589 42.5667 298.019 43.4813 298.28 44.508C298.541 45.5347 298.635 46.608 298.56 47.728H288.116ZM59.6868 72.524H62.5988V75.184H59.6868V82.352C59.6868 83.024 59.7988 83.472 60.0228 83.696C60.2468 83.92 60.6948 84.032 61.3668 84.032C61.8148 84.032 62.2254 83.9947 62.5988 83.92V87.028C62.2628 87.084 61.8894 87.1213 61.4788 87.14C61.0681 87.1587 60.6668 87.168 60.2748 87.168C59.6588 87.168 59.0708 87.1213 58.5108 87.028C57.9694 86.9533 57.4841 86.7947 57.0548 86.552C56.6441 86.2907 56.3174 85.936 56.0748 85.488C55.8321 85.04 55.7108 84.452 55.7108 83.724V75.184H53.3028V72.524H55.7108V68.184H59.6868V72.524ZM64.4905 67.008H68.4665V74.54H68.5505C69.0545 73.7187 69.6985 73.112 70.4825 72.72C71.2665 72.328 72.0318 72.132 72.7785 72.132C73.8425 72.132 74.7105 72.2813 75.3825 72.58C76.0732 72.86 76.6145 73.2613 77.0065 73.784C77.3985 74.288 77.6692 74.9133 77.8185 75.66C77.9865 76.388 78.0705 77.2 78.0705 78.096V87H74.0945V78.824C74.0945 77.6293 73.8985 76.7427 73.5065 76.164C73.1332 75.5667 72.4798 75.268 71.5465 75.268C70.4638 75.268 69.6798 75.5947 69.1945 76.248C68.7092 76.8827 68.4665 77.9373 68.4665 79.412V87H64.4905V67.008ZM90.8322 78.208C90.6455 77.2 90.3095 76.4347 89.8242 75.912C89.3575 75.3893 88.6388 75.128 87.6682 75.128C87.0335 75.128 86.5015 75.24 86.0722 75.464C85.6615 75.6693 85.3255 75.9307 85.0642 76.248C84.8215 76.5653 84.6442 76.9013 84.5322 77.256C84.4388 77.6107 84.3828 77.928 84.3642 78.208H90.8322ZM84.3642 80.728C84.4202 81.9973 84.7468 82.9307 85.3442 83.528C85.9415 84.1067 86.8002 84.396 87.9202 84.396C88.7228 84.396 89.4135 84.2 89.9922 83.808C90.5708 83.3973 90.9255 82.968 91.0562 82.52H94.5562C93.9962 84.2373 93.1375 85.4787 91.9802 86.244C90.8228 87.0093 89.4228 87.392 87.7802 87.392C86.6415 87.392 85.6148 87.2053 84.7002 86.832C83.7855 86.4587 83.0108 85.936 82.3762 85.264C81.7415 84.592 81.2468 83.7893 80.8922 82.856C80.5562 81.9227 80.3882 80.896 80.3882 79.776C80.3882 78.6933 80.5655 77.6853 80.9202 76.752C81.2748 75.8187 81.7788 75.016 82.4322 74.344C83.0855 73.6533 83.8602 73.112 84.7562 72.72C85.6708 72.328 86.6788 72.132 87.7802 72.132C89.0122 72.132 90.0855 72.3747 91.0002 72.86C91.9148 73.3267 92.6615 73.9613 93.2402 74.764C93.8375 75.5667 94.2668 76.4813 94.5282 77.508C94.7895 78.5347 94.8828 79.608 94.8082 80.728H84.3642ZM124.419 87H120.051L116.663 73.392H116.607L113.275 87H108.823L103.531 67.008H107.927L111.091 80.616H111.147L114.619 67.008H118.735L122.151 80.784H122.207L125.483 67.008H129.795L124.419 87ZM135.489 70.284H131.513V67.008H135.489V70.284ZM131.513 72.524H135.489V87H131.513V72.524ZM138.619 72.524H142.399V74.54H142.483C142.987 73.7187 143.641 73.112 144.443 72.72C145.246 72.328 146.067 72.132 146.907 72.132C147.971 72.132 148.839 72.2813 149.511 72.58C150.202 72.86 150.743 73.2613 151.135 73.784C151.527 74.288 151.798 74.9133 151.947 75.66C152.115 76.388 152.199 77.2 152.199 78.096V87H148.223V78.824C148.223 77.6293 148.027 76.7427 147.635 76.164C147.262 75.5667 146.609 75.268 145.675 75.268C144.593 75.268 143.809 75.5947 143.323 76.248C142.838 76.8827 142.595 77.9373 142.595 79.412V87H138.619V72.524ZM155.217 72.524H158.997V74.54H159.081C159.585 73.7187 160.238 73.112 161.041 72.72C161.844 72.328 162.665 72.132 163.505 72.132C164.569 72.132 165.437 72.2813 166.109 72.58C166.8 72.86 167.341 73.2613 167.733 73.784C168.125 74.288 168.396 74.9133 168.545 75.66C168.713 76.388 168.797 77.2 168.797 78.096V87H164.821V78.824C164.821 77.6293 164.625 76.7427 164.233 76.164C163.86 75.5667 163.206 75.268 162.273 75.268C161.19 75.268 160.406 75.5947 159.921 76.248C159.436 76.8827 159.193 77.9373 159.193 79.412V87H155.217V72.524ZM181.559 78.208C181.372 77.2 181.036 76.4347 180.551 75.912C180.084 75.3893 179.365 75.128 178.395 75.128C177.76 75.128 177.228 75.24 176.799 75.464C176.388 75.6693 176.052 75.9307 175.791 76.248C175.548 76.5653 175.371 76.9013 175.259 77.256C175.165 77.6107 175.109 77.928 175.091 78.208H181.559ZM175.091 80.728C175.147 81.9973 175.473 82.9307 176.071 83.528C176.668 84.1067 177.527 84.396 178.647 84.396C179.449 84.396 180.14 84.2 180.719 83.808C181.297 83.3973 181.652 82.968 181.783 82.52H185.283C184.723 84.2373 183.864 85.4787 182.707 86.244C181.549 87.0093 180.149 87.392 178.507 87.392C177.368 87.392 176.341 87.2053 175.427 86.832C174.512 86.4587 173.737 85.936 173.103 85.264C172.468 84.592 171.973 83.7893 171.619 82.856C171.283 81.9227 171.115 80.896 171.115 79.776C171.115 78.6933 171.292 77.6853 171.647 76.752C172.001 75.8187 172.505 75.016 173.159 74.344C173.812 73.6533 174.587 73.112 175.483 72.72C176.397 72.328 177.405 72.132 178.507 72.132C179.739 72.132 180.812 72.3747 181.727 72.86C182.641 73.3267 183.388 73.9613 183.967 74.764C184.564 75.5667 184.993 76.4813 185.255 77.508C185.516 78.5347 185.609 79.608 185.535 80.728H175.091ZM187.893 72.524H191.673V75.212H191.729C191.916 74.764 192.168 74.3533 192.485 73.98C192.802 73.588 193.166 73.2613 193.577 73C193.988 72.72 194.426 72.5053 194.893 72.356C195.378 72.2067 195.864 72.132 196.349 72.132C196.648 72.132 196.937 72.1787 197.217 72.272V75.968C197.03 75.9307 196.806 75.9027 196.545 75.884C196.284 75.8467 196.032 75.828 195.789 75.828C195.061 75.828 194.445 75.9493 193.941 76.192C193.437 76.4347 193.026 76.7707 192.709 77.2C192.41 77.6107 192.196 78.1053 192.065 78.684C191.934 79.244 191.869 79.8413 191.869 80.476V87H187.893V72.524ZM201.856 82.296C201.856 82.7253 201.94 83.0987 202.108 83.416C202.294 83.7147 202.528 83.9667 202.808 84.172C203.088 84.3587 203.405 84.4987 203.76 84.592C204.133 84.6853 204.516 84.732 204.908 84.732C205.188 84.732 205.477 84.704 205.776 84.648C206.093 84.5733 206.373 84.4707 206.616 84.34C206.877 84.1907 207.092 84.004 207.26 83.78C207.428 83.5373 207.512 83.2387 207.512 82.884C207.512 82.5853 207.409 82.3333 207.204 82.128C206.998 81.904 206.7 81.708 206.308 81.54C205.934 81.372 205.468 81.2227 204.908 81.092C204.348 80.9427 203.713 80.7933 203.004 80.644C202.425 80.5133 201.856 80.364 201.296 80.196C200.754 80.0093 200.269 79.776 199.84 79.496C199.41 79.1973 199.065 78.8333 198.804 78.404C198.542 77.956 198.412 77.4147 198.412 76.78C198.412 75.8653 198.589 75.1093 198.944 74.512C199.317 73.896 199.802 73.42 200.4 73.084C200.997 72.7293 201.669 72.4867 202.416 72.356C203.162 72.2067 203.928 72.132 204.712 72.132C205.496 72.132 206.252 72.2067 206.98 72.356C207.726 72.5053 208.389 72.7573 208.968 73.112C209.546 73.4667 210.022 73.9427 210.396 74.54C210.788 75.1187 211.021 75.856 211.096 76.752H207.316C207.26 75.9867 206.97 75.4733 206.448 75.212C205.925 74.932 205.309 74.792 204.6 74.792C204.376 74.792 204.133 74.8107 203.872 74.848C203.61 74.8667 203.368 74.9227 203.144 75.016C202.938 75.1093 202.761 75.2493 202.612 75.436C202.462 75.604 202.388 75.8373 202.388 76.136C202.388 76.4907 202.518 76.78 202.78 77.004C203.041 77.228 203.377 77.4147 203.788 77.564C204.217 77.6947 204.702 77.816 205.244 77.928C205.785 78.04 206.336 78.1613 206.896 78.292C207.474 78.4227 208.034 78.5813 208.576 78.768C209.136 78.9547 209.63 79.2067 210.06 79.524C210.489 79.8227 210.834 80.2053 211.096 80.672C211.357 81.12 211.488 81.68 211.488 82.352C211.488 83.304 211.292 84.1067 210.9 84.76C210.526 85.3947 210.032 85.908 209.416 86.3C208.8 86.692 208.09 86.972 207.288 87.14C206.504 87.308 205.701 87.392 204.88 87.392C204.04 87.392 203.218 87.308 202.416 87.14C201.613 86.972 200.894 86.692 200.26 86.3C199.644 85.8893 199.13 85.3573 198.72 84.704C198.328 84.0507 198.113 83.248 198.076 82.296H201.856ZM225.136 79.776C225.136 80.3547 225.192 80.924 225.304 81.484C225.416 82.0253 225.602 82.52 225.864 82.968C226.144 83.3973 226.508 83.7427 226.956 84.004C227.404 84.2653 227.964 84.396 228.636 84.396C229.308 84.396 229.868 84.2653 230.316 84.004C230.782 83.7427 231.146 83.3973 231.408 82.968C231.688 82.52 231.884 82.0253 231.996 81.484C232.108 80.924 232.164 80.3547 232.164 79.776C232.164 79.1973 232.108 78.628 231.996 78.068C231.884 77.508 231.688 77.0133 231.408 76.584C231.146 76.1547 230.782 75.8093 230.316 75.548C229.868 75.268 229.308 75.128 228.636 75.128C227.964 75.128 227.404 75.268 226.956 75.548C226.508 75.8093 226.144 76.1547 225.864 76.584C225.602 77.0133 225.416 77.508 225.304 78.068C225.192 78.628 225.136 79.1973 225.136 79.776ZM221.16 79.776C221.16 78.6187 221.337 77.5733 221.692 76.64C222.046 75.688 222.55 74.8853 223.204 74.232C223.857 73.56 224.641 73.0467 225.556 72.692C226.47 72.3187 227.497 72.132 228.636 72.132C229.774 72.132 230.801 72.3187 231.716 72.692C232.649 73.0467 233.442 73.56 234.096 74.232C234.749 74.8853 235.253 75.688 235.608 76.64C235.962 77.5733 236.14 78.6187 236.14 79.776C236.14 80.9333 235.962 81.9787 235.608 82.912C235.253 83.8453 234.749 84.648 234.096 85.32C233.442 85.9733 232.649 86.4867 231.716 86.86C230.801 87.2147 229.774 87.392 228.636 87.392C227.497 87.392 226.47 87.2147 225.556 86.86C224.641 86.4867 223.857 85.9733 223.204 85.32C222.55 84.648 222.046 83.8453 221.692 82.912C221.337 81.9787 221.16 80.9333 221.16 79.776ZM239.593 75.184H237.213V72.524H239.593V71.404C239.593 70.7693 239.686 70.1813 239.873 69.64C240.078 69.0987 240.386 68.632 240.797 68.24C241.208 67.848 241.712 67.5493 242.309 67.344C242.906 67.12 243.616 67.008 244.437 67.008C244.792 67.008 245.146 67.0267 245.501 67.064C245.856 67.0827 246.201 67.1013 246.537 67.12V70.088C246.052 70.032 245.566 70.004 245.081 70.004C244.54 70.004 244.148 70.1347 243.905 70.396C243.681 70.6387 243.569 71.0587 243.569 71.656V72.524H246.313V75.184H243.569V87H239.593V75.184ZM95.9537 104.704H89.9617V101.008H106.342V104.704H100.35V121H95.9537V104.704ZM110.196 113.776C110.196 114.355 110.252 114.924 110.364 115.484C110.476 116.025 110.663 116.52 110.924 116.968C111.204 117.397 111.568 117.743 112.016 118.004C112.464 118.265 113.024 118.396 113.696 118.396C114.368 118.396 114.928 118.265 115.376 118.004C115.843 117.743 116.207 117.397 116.468 116.968C116.748 116.52 116.944 116.025 117.056 115.484C117.168 114.924 117.224 114.355 117.224 113.776C117.224 113.197 117.168 112.628 117.056 112.068C116.944 111.508 116.748 111.013 116.468 110.584C116.207 110.155 115.843 109.809 115.376 109.548C114.928 109.268 114.368 109.128 113.696 109.128C113.024 109.128 112.464 109.268 112.016 109.548C111.568 109.809 111.204 110.155 110.924 110.584C110.663 111.013 110.476 111.508 110.364 112.068C110.252 112.628 110.196 113.197 110.196 113.776ZM106.22 113.776C106.22 112.619 106.398 111.573 106.752 110.64C107.107 109.688 107.611 108.885 108.264 108.232C108.918 107.56 109.702 107.047 110.616 106.692C111.531 106.319 112.558 106.132 113.696 106.132C114.835 106.132 115.862 106.319 116.776 106.692C117.71 107.047 118.503 107.56 119.156 108.232C119.81 108.885 120.314 109.688 120.668 110.64C121.023 111.573 121.2 112.619 121.2 113.776C121.2 114.933 121.023 115.979 120.668 116.912C120.314 117.845 119.81 118.648 119.156 119.32C118.503 119.973 117.71 120.487 116.776 120.86C115.862 121.215 114.835 121.392 113.696 121.392C112.558 121.392 111.531 121.215 110.616 120.86C109.702 120.487 108.918 119.973 108.264 119.32C107.611 118.648 107.107 117.845 106.752 116.912C106.398 115.979 106.22 114.933 106.22 113.776ZM122.339 106.524H126.091V108.484H126.147C126.67 107.737 127.295 107.159 128.023 106.748C128.77 106.337 129.619 106.132 130.571 106.132C131.486 106.132 132.316 106.319 133.063 106.692C133.828 107.047 134.407 107.663 134.799 108.54C135.228 107.905 135.807 107.345 136.535 106.86C137.282 106.375 138.159 106.132 139.167 106.132C139.932 106.132 140.642 106.225 141.295 106.412C141.948 106.599 142.508 106.897 142.975 107.308C143.442 107.719 143.806 108.26 144.067 108.932C144.328 109.585 144.459 110.379 144.459 111.312V121H140.483V112.796C140.483 112.311 140.464 111.853 140.427 111.424C140.39 110.995 140.287 110.621 140.119 110.304C139.951 109.987 139.699 109.735 139.363 109.548C139.046 109.361 138.607 109.268 138.047 109.268C137.487 109.268 137.03 109.38 136.675 109.604C136.339 109.809 136.068 110.089 135.863 110.444C135.676 110.78 135.546 111.172 135.471 111.62C135.415 112.049 135.387 112.488 135.387 112.936V121H131.411V112.88C131.411 112.469 131.402 112.049 131.383 111.62C131.364 111.191 131.28 110.799 131.131 110.444C131 110.089 130.767 109.809 130.431 109.604C130.114 109.38 129.638 109.268 129.003 109.268C128.798 109.268 128.546 109.315 128.247 109.408C127.948 109.483 127.65 109.641 127.351 109.884C127.071 110.108 126.828 110.444 126.623 110.892C126.418 111.321 126.315 111.891 126.315 112.6V121H122.339V106.524ZM151.13 113.776C151.13 114.355 151.186 114.924 151.298 115.484C151.41 116.025 151.597 116.52 151.858 116.968C152.138 117.397 152.502 117.743 152.95 118.004C153.398 118.265 153.958 118.396 154.63 118.396C155.302 118.396 155.862 118.265 156.31 118.004C156.777 117.743 157.141 117.397 157.402 116.968C157.682 116.52 157.878 116.025 157.99 115.484C158.102 114.924 158.158 114.355 158.158 113.776C158.158 113.197 158.102 112.628 157.99 112.068C157.878 111.508 157.682 111.013 157.402 110.584C157.141 110.155 156.777 109.809 156.31 109.548C155.862 109.268 155.302 109.128 154.63 109.128C153.958 109.128 153.398 109.268 152.95 109.548C152.502 109.809 152.138 110.155 151.858 110.584C151.597 111.013 151.41 111.508 151.298 112.068C151.186 112.628 151.13 113.197 151.13 113.776ZM147.154 113.776C147.154 112.619 147.331 111.573 147.686 110.64C148.041 109.688 148.545 108.885 149.198 108.232C149.851 107.56 150.635 107.047 151.55 106.692C152.465 106.319 153.491 106.132 154.63 106.132C155.769 106.132 156.795 106.319 157.71 106.692C158.643 107.047 159.437 107.56 160.09 108.232C160.743 108.885 161.247 109.688 161.602 110.64C161.957 111.573 162.134 112.619 162.134 113.776C162.134 114.933 161.957 115.979 161.602 116.912C161.247 117.845 160.743 118.648 160.09 119.32C159.437 119.973 158.643 120.487 157.71 120.86C156.795 121.215 155.769 121.392 154.63 121.392C153.491 121.392 152.465 121.215 151.55 120.86C150.635 120.487 149.851 119.973 149.198 119.32C148.545 118.648 148.041 117.845 147.686 116.912C147.331 115.979 147.154 114.933 147.154 113.776ZM164.719 106.524H168.499V109.212H168.555C168.742 108.764 168.994 108.353 169.311 107.98C169.628 107.588 169.992 107.261 170.403 107C170.814 106.72 171.252 106.505 171.719 106.356C172.204 106.207 172.69 106.132 173.175 106.132C173.474 106.132 173.763 106.179 174.043 106.272V109.968C173.856 109.931 173.632 109.903 173.371 109.884C173.11 109.847 172.858 109.828 172.615 109.828C171.887 109.828 171.271 109.949 170.767 110.192C170.263 110.435 169.852 110.771 169.535 111.2C169.236 111.611 169.022 112.105 168.891 112.684C168.76 113.244 168.695 113.841 168.695 114.476V121H164.719V106.524ZM175.602 106.524H179.382V109.212H179.438C179.625 108.764 179.877 108.353 180.194 107.98C180.511 107.588 180.875 107.261 181.286 107C181.697 106.72 182.135 106.505 182.602 106.356C183.087 106.207 183.573 106.132 184.058 106.132C184.357 106.132 184.646 106.179 184.926 106.272V109.968C184.739 109.931 184.515 109.903 184.254 109.884C183.993 109.847 183.741 109.828 183.498 109.828C182.77 109.828 182.154 109.949 181.65 110.192C181.146 110.435 180.735 110.771 180.418 111.2C180.119 111.611 179.905 112.105 179.774 112.684C179.643 113.244 179.578 113.841 179.578 114.476V121H175.602V106.524ZM189.767 113.776C189.767 114.355 189.823 114.924 189.935 115.484C190.047 116.025 190.233 116.52 190.495 116.968C190.775 117.397 191.139 117.743 191.587 118.004C192.035 118.265 192.595 118.396 193.267 118.396C193.939 118.396 194.499 118.265 194.947 118.004C195.413 117.743 195.777 117.397 196.039 116.968C196.319 116.52 196.515 116.025 196.627 115.484C196.739 114.924 196.795 114.355 196.795 113.776C196.795 113.197 196.739 112.628 196.627 112.068C196.515 111.508 196.319 111.013 196.039 110.584C195.777 110.155 195.413 109.809 194.947 109.548C194.499 109.268 193.939 109.128 193.267 109.128C192.595 109.128 192.035 109.268 191.587 109.548C191.139 109.809 190.775 110.155 190.495 110.584C190.233 111.013 190.047 111.508 189.935 112.068C189.823 112.628 189.767 113.197 189.767 113.776ZM185.791 113.776C185.791 112.619 185.968 111.573 186.323 110.64C186.677 109.688 187.181 108.885 187.835 108.232C188.488 107.56 189.272 107.047 190.187 106.692C191.101 106.319 192.128 106.132 193.267 106.132C194.405 106.132 195.432 106.319 196.347 106.692C197.28 107.047 198.073 107.56 198.727 108.232C199.38 108.885 199.884 109.688 200.239 110.64C200.593 111.573 200.771 112.619 200.771 113.776C200.771 114.933 200.593 115.979 200.239 116.912C199.884 117.845 199.38 118.648 198.727 119.32C198.073 119.973 197.28 120.487 196.347 120.86C195.432 121.215 194.405 121.392 193.267 121.392C192.128 121.392 191.101 121.215 190.187 120.86C189.272 120.487 188.488 119.973 187.835 119.32C187.181 118.648 186.677 117.845 186.323 116.912C185.968 115.979 185.791 114.933 185.791 113.776ZM219.658 121H215.57L212.994 111.284H212.938L210.474 121H206.358L201.766 106.524H205.966L208.626 116.352H208.682L211.09 106.524H214.954L217.418 116.324H217.474L220.134 106.524H224.222L219.658 121Z" transform="translate(309.206 625)" fill="white"/>
<path d="M2.96 4.2H11.1V56H2.96V4.2ZM40.6578 36.686V43.568C40.6578 47.7613 39.6218 50.9927 37.5498 53.262C35.5271 55.482 32.5178 56.592 28.5218 56.592C24.5258 56.592 21.4918 55.482 19.4198 53.262C17.3971 50.9927 16.3858 47.7613 16.3858 43.568V16.632C16.3858 12.4387 17.3971 9.232 19.4198 7.012C21.4918 4.74267 24.5258 3.608 28.5218 3.608C32.5178 3.608 35.5271 4.74267 37.5498 7.012C39.6218 9.232 40.6578 12.4387 40.6578 16.632V21.664H32.9618V16.114C32.9618 14.2393 32.5671 12.932 31.7778 12.192C31.0378 11.4027 30.0265 11.008 28.7438 11.008C27.4611 11.008 26.4251 11.4027 25.6358 12.192C24.8958 12.932 24.5258 14.2393 24.5258 16.114V44.086C24.5258 45.9607 24.8958 47.268 25.6358 48.008C26.4251 48.748 27.4611 49.118 28.7438 49.118C30.0265 49.118 31.0378 48.748 31.7778 48.008C32.5671 47.268 32.9618 45.9607 32.9618 44.086V36.686H40.6578ZM44.5607 16.632C44.5607 12.4387 45.5474 9.232 47.5207 7.012C49.5434 4.74267 52.5527 3.608 56.5487 3.608C60.5447 3.608 63.5294 4.74267 65.5027 7.012C67.5254 9.232 68.5367 12.4387 68.5367 16.632V18.26H60.8407V16.114C60.8407 14.2393 60.4707 12.932 59.7307 12.192C59.0401 11.4027 58.0534 11.008 56.7707 11.008C55.4881 11.008 54.4767 11.4027 53.7367 12.192C53.0461 12.932 52.7007 14.2393 52.7007 16.114C52.7007 17.89 53.0954 19.4687 53.8847 20.85C54.6741 22.182 55.6607 23.4647 56.8447 24.698C58.0287 25.882 59.2867 27.0907 60.6187 28.324C62.0001 29.508 63.2827 30.8153 64.4667 32.246C65.6507 33.6767 66.6374 35.3047 67.4267 37.13C68.2161 38.9553 68.6107 41.1013 68.6107 43.568C68.6107 47.7613 67.5747 50.9927 65.5027 53.262C63.4801 55.482 60.4707 56.592 56.4747 56.592C52.4787 56.592 49.4447 55.482 47.3727 53.262C45.3501 50.9927 44.3387 47.7613 44.3387 43.568V40.386H52.0347V44.086C52.0347 45.9607 52.4047 47.268 53.1447 48.008C53.9341 48.748 54.9701 49.118 56.2527 49.118C57.5354 49.118 58.5467 48.748 59.2867 48.008C60.0761 47.268 60.4707 45.9607 60.4707 44.086C60.4707 42.31 60.0761 40.756 59.2867 39.424C58.4974 38.0427 57.5107 36.76 56.3267 35.576C55.1427 34.3427 53.8601 33.134 52.4787 31.95C51.1467 30.7167 49.8887 29.3847 48.7047 27.954C47.5207 26.5233 46.5341 24.8953 45.7447 23.07C44.9554 21.2447 44.5607 19.0987 44.5607 16.632ZM90.5165 40.978L96.0665 4.2H107.388V56H99.6925V18.852L94.0685 56H86.3725L80.3045 19.37V56H73.2005V4.2H84.5225L90.5165 40.978ZM121.45 26.03H132.624V33.43H121.45V48.6H135.51V56H113.31V4.2H135.51V11.6H121.45V26.03ZM168.176 16.928C168.176 14.6093 167.781 13.0553 166.992 12.266C166.252 11.4273 165.241 11.008 163.958 11.008C162.675 11.008 161.639 11.4027 160.85 12.192C160.11 12.932 159.74 14.2393 159.74 16.114V21.664H152.044V16.632C152.044 12.4387 153.055 9.232 155.078 7.012C157.15 4.74267 160.184 3.608 164.18 3.608C168.176 3.608 171.185 4.74267 173.208 7.012C175.28 9.232 176.316 12.4387 176.316 16.632C176.316 19.3453 175.921 21.812 175.132 24.032C174.343 26.2027 173.331 28.2007 172.098 30.026C170.914 31.802 169.607 33.4547 168.176 34.984C166.795 36.5133 165.487 37.9687 164.254 39.35C163.07 40.7313 162.083 42.088 161.294 43.42C160.505 44.7027 160.11 46.0593 160.11 47.49C160.11 47.9833 160.135 48.3533 160.184 48.6H175.576V56H152.044V49.636C152.044 47.12 152.439 44.9 153.228 42.976C154.017 41.052 155.004 39.3007 156.188 37.722C157.421 36.094 158.729 34.5893 160.11 33.208C161.491 31.7773 162.774 30.2727 163.958 28.694C165.191 27.1153 166.203 25.3887 166.992 23.514C167.781 21.6393 168.176 19.444 168.176 16.928ZM188.858 44.086C188.858 45.9607 189.228 47.2927 189.968 48.082C190.757 48.822 191.793 49.192 193.076 49.192C194.358 49.192 195.37 48.822 196.11 48.082C196.899 47.2927 197.294 45.9607 197.294 44.086V16.114C197.294 14.2393 196.899 12.932 196.11 12.192C195.37 11.4027 194.358 11.008 193.076 11.008C191.793 11.008 190.757 11.4027 189.968 12.192C189.228 12.932 188.858 14.2393 188.858 16.114V44.086ZM180.718 16.632C180.718 12.4387 181.778 9.232 183.9 7.012C186.021 4.74267 189.08 3.608 193.076 3.608C197.072 3.608 200.13 4.74267 202.252 7.012C204.373 9.232 205.434 12.4387 205.434 16.632V43.568C205.434 47.7613 204.373 50.9927 202.252 53.262C200.13 55.482 197.072 56.592 193.076 56.592C189.08 56.592 186.021 55.482 183.9 53.262C181.778 50.9927 180.718 47.7613 180.718 43.568V16.632ZM215.756 10.712C217.334 10.712 218.617 10.5393 219.604 10.194C220.64 9.84867 221.478 9.38 222.12 8.788C222.761 8.196 223.279 7.50533 223.674 6.716C224.068 5.92667 224.414 5.088 224.71 4.2H230.186V56H222.046V16.484H215.756V10.712ZM264.484 43.568C264.484 47.7613 263.398 50.9927 261.228 53.262C259.057 55.482 255.9 56.592 251.756 56.592C247.612 56.592 244.454 55.482 242.284 53.262C240.113 50.9927 239.028 47.7613 239.028 43.568V39.498C239.028 36.982 239.422 34.8113 240.212 32.986C241.001 31.1113 242.284 29.6807 244.06 28.694C240.705 26.8687 239.028 23.3907 239.028 18.26V16.632C239.028 12.4387 240.113 9.232 242.284 7.012C244.454 4.74267 247.612 3.608 251.756 3.608C255.9 3.608 259.057 4.74267 261.228 7.012C263.398 9.232 264.484 12.4387 264.484 16.632V18.26C264.484 23.3413 262.806 26.8193 259.452 28.694C261.228 29.6807 262.51 31.1113 263.3 32.986C264.089 34.8113 264.484 36.982 264.484 39.498V43.568ZM247.168 43.346C247.168 45.6647 247.612 47.2187 248.5 48.008C249.388 48.7973 250.473 49.192 251.756 49.192C253.038 49.192 254.099 48.7973 254.938 48.008C255.826 47.2187 256.294 45.6647 256.344 43.346V38.536C256.344 36.464 255.924 34.984 255.086 34.096C254.296 33.1587 253.186 32.69 251.756 32.69C250.325 32.69 249.19 33.1587 248.352 34.096C247.562 34.984 247.168 36.464 247.168 38.536V43.346ZM247.168 19.814C247.168 21.886 247.587 23.3167 248.426 24.106C249.314 24.8953 250.424 25.29 251.756 25.29C253.038 25.29 254.124 24.8953 255.012 24.106C255.9 23.3167 256.344 21.886 256.344 19.814V16.928C256.344 14.6093 255.9 13.0553 255.012 12.266C254.124 11.4273 253.038 11.008 251.756 11.008C250.473 11.008 249.388 11.4273 248.5 12.266C247.612 13.0553 247.168 14.6093 247.168 16.928V19.814Z" transform="translate(332.206 338)" fill="white"/>
<path d="M1.14728 5.4H34.4673V15.2H23.1973V74H12.4173V15.2H1.14728V5.4ZM49.9949 74H39.2149V5.4H49.9949V34.8H62.2449V5.4H73.2209V74H62.2449V44.6H49.9949V74ZM91.8172 34.31H106.615V44.11H91.8172V64.2H110.437V74H81.0372V5.4H110.437V15.2H91.8172V34.31ZM143.114 35.878H157.03V45.678H143.114V74H132.334V5.4H160.852V15.2H143.114V35.878ZM176.312 5.4V58.32C176.312 60.8027 176.802 62.534 177.782 63.514C178.827 64.494 180.199 64.984 181.898 64.984C183.596 64.984 184.936 64.494 185.916 63.514C186.961 62.534 187.484 60.8027 187.484 58.32V5.4H197.676V57.634C197.676 63.1873 196.304 67.4667 193.56 70.472C190.881 73.412 186.896 74.882 181.604 74.882C176.312 74.882 172.294 73.412 169.55 70.472C166.871 67.4667 165.532 63.1873 165.532 57.634V5.4H176.312ZM201.932 5.4H235.252V15.2H223.982V74H213.202V15.2H201.932V5.4ZM250.29 5.4V58.32C250.29 60.8027 250.78 62.534 251.76 63.514C252.805 64.494 254.177 64.984 255.876 64.984C257.575 64.984 258.914 64.494 259.894 63.514C260.939 62.534 261.462 60.8027 261.462 58.32V5.4H271.654V57.634C271.654 63.1873 270.282 67.4667 267.538 70.472C264.859 73.412 260.874 74.882 255.582 74.882C250.29 74.882 246.272 73.412 243.528 70.472C240.849 67.4667 239.51 63.1873 239.51 57.634V5.4H250.29ZM301.587 74C301.456 73.5427 301.326 73.118 301.195 72.726C301.064 72.334 300.934 71.844 300.803 71.256C300.738 70.668 300.672 69.9167 300.607 69.002C300.607 68.0873 300.607 66.944 300.607 65.572V54.792C300.607 51.5907 300.052 49.3367 298.941 48.03C297.83 46.7233 296.034 46.07 293.551 46.07H289.827V74H279.047V5.4H295.315C300.934 5.4 304.984 6.70667 307.467 9.32C310.015 11.9333 311.289 15.886 311.289 21.178V26.568C311.289 33.624 308.937 38.2627 304.233 40.484C306.977 41.5947 308.839 43.424 309.819 45.972C310.864 48.4547 311.387 51.4927 311.387 55.086V65.67C311.387 67.3687 311.452 68.8713 311.583 70.178C311.714 71.4193 312.04 72.6933 312.563 74H301.587ZM289.827 15.2V36.27H294.041C296.066 36.27 297.634 35.7473 298.745 34.702C299.921 33.6567 300.509 31.762 300.509 29.018V22.256C300.509 19.7733 300.052 17.9767 299.137 16.866C298.288 15.7553 296.916 15.2 295.021 15.2H289.827ZM329.257 34.31H344.055V44.11H329.257V64.2H347.877V74H318.477V5.4H347.877V15.2H329.257V34.31ZM76.2042 93.4H86.9842V162H76.2042V93.4ZM93.4943 109.864C93.4943 104.311 94.801 100.064 97.4143 97.124C100.093 94.1187 104.078 92.616 109.37 92.616C114.662 92.616 118.615 94.1187 121.228 97.124C123.907 100.064 125.246 104.311 125.246 109.864V112.02H115.054V109.178C115.054 106.695 114.564 104.964 113.584 103.984C112.67 102.939 111.363 102.416 109.664 102.416C107.966 102.416 106.626 102.939 105.646 103.984C104.732 104.964 104.274 106.695 104.274 109.178C104.274 111.53 104.797 113.621 105.842 115.45C106.888 117.214 108.194 118.913 109.762 120.546C111.33 122.114 112.996 123.715 114.76 125.348C116.59 126.916 118.288 128.647 119.856 130.542C121.424 132.437 122.731 134.593 123.776 137.01C124.822 139.427 125.344 142.269 125.344 145.536C125.344 151.089 123.972 155.369 121.228 158.374C118.55 161.314 114.564 162.784 109.272 162.784C103.98 162.784 99.9623 161.314 97.2183 158.374C94.5396 155.369 93.2003 151.089 93.2003 145.536V141.322H103.392V146.222C103.392 148.705 103.882 150.436 104.862 151.416C105.908 152.396 107.28 152.886 108.978 152.886C110.677 152.886 112.016 152.396 112.996 151.416C114.042 150.436 114.564 148.705 114.564 146.222C114.564 143.87 114.042 141.812 112.996 140.048C111.951 138.219 110.644 136.52 109.076 134.952C107.508 133.319 105.81 131.718 103.98 130.15C102.216 128.517 100.55 126.753 98.9823 124.858C97.4143 122.963 96.1076 120.807 95.0623 118.39C94.017 115.973 93.4943 113.131 93.4943 109.864ZM156.341 112.314V162H146.639V93.4H160.163L171.237 134.462V93.4H180.841V162H169.767L156.341 112.314ZM198.458 146.222C198.458 148.705 198.948 150.469 199.928 151.514C200.973 152.494 202.345 152.984 204.044 152.984C205.742 152.984 207.082 152.494 208.062 151.514C209.107 150.469 209.63 148.705 209.63 146.222V109.178C209.63 106.695 209.107 104.964 208.062 103.984C207.082 102.939 205.742 102.416 204.044 102.416C202.345 102.416 200.973 102.939 199.928 103.984C198.948 104.964 198.458 106.695 198.458 109.178V146.222ZM187.678 109.864C187.678 104.311 189.082 100.064 191.892 97.124C194.701 94.1187 198.752 92.616 204.044 92.616C209.336 92.616 213.386 94.1187 216.196 97.124C219.005 100.064 220.41 104.311 220.41 109.864V145.536C220.41 151.089 219.005 155.369 216.196 158.374C213.386 161.314 209.336 162.784 204.044 162.784C198.752 162.784 194.701 161.314 191.892 158.374C189.082 155.369 187.678 151.089 187.678 145.536V109.864ZM251.327 125.446L247.407 162H232.609L224.965 93.4H235.451L241.233 147.496L246.427 93.4H256.815L262.205 147.888L267.791 93.4H277.199L269.555 162H255.247L251.327 125.446Z" transform="translate(290.206 433)" fill="#7E7240"/>
<rect width="158" height="212.944" transform="translate(875.984 255.682) rotate(45)" fill="url(#paint0_linear)"/>
<rect x="1" y="1" width="662" height="767" transform="translate(543.765 -108.064) rotate(45)" stroke="white" stroke-width="2"/>
<rect width="429" height="43" transform="translate(75.3672 498.755) rotate(45)" fill="#74747D"/>
<defs>
<linearGradient id="paint0_linear" x2="1" gradientUnits="userSpaceOnUse" gradientTransform="matrix(-164 3.0713 -2.27884 -127.538 159.139 159.491)">
<stop stop-color="#544C2A"/>
<stop offset="1" stop-color="#786C3D"/>
</linearGradient>
</defs>
</svg>
