<svg xmlns:dc="http://purl.org/dc/elements/1.1/" xmlns:cc="http://creativecommons.org/ns#" xmlns:rdf="http://www.w3.org/1999/02/22-rdf-syntax-ns#" xmlns:svg="http://www.w3.org/2000/svg" xmlns="http://www.w3.org/2000/svg" xmlns:sodipodi="http://sodipodi.sourceforge.net/DTD/sodipodi-0.dtd" xmlns:inkscape="http://www.inkscape.org/namespaces/inkscape" version="1.1" x="0px" y="0px" viewBox="0 0 100 125"><g transform="translate(0,-952.36218)"><path style="color:#000000;enable-background:accumulate;" d="m 43.996976,958.36216 c -13.2803,0 -24,11.26356 -24,25 0,3.87971 0.8546,7.52907 2.375,10.8125 a 2.0002,2.0002 0 1 0 3.625,-1.65625 c -1.282,-2.76861 -2,-5.861 -2,-9.15625 0,-11.66866 8.9798,-21 20,-21 11.0203,0 20,9.33134 20,21 0,3.29525 -0.718,6.38764 -2,9.15625 a 2.0002,2.0002 0 1 0 3.625,1.65625 c 1.5204,-3.28343 2.375,-6.93279 2.375,-10.8125 0,-13.73644 -10.7197,-25 -24,-25 z m 0,7 c -9.4372,0 -17,8.15012 -17,18 0,3.26263 0.8479,6.30083 2.2812,8.9375 a 2.0002,2.0002 0 1 0 3.5,-1.90625 c -1.1286,-2.07637 -1.7812,-4.45382 -1.7812,-7.03125 0,-7.82324 5.8687,-14 13,-14 7.1313,0 13,6.17676 13,14 0,2.57743 -0.6526,4.95488 -1.7812,7.03125 a 2.0002,2.0002 0 1 0 3.5,1.90625 c 1.4331,-2.63667 2.2812,-5.67487 2.2812,-8.9375 0,-9.84988 -7.5628,-18 -17,-18 z m 0,9 c -3.3234,0 -6,2.676 -6,6 l 0,36.00004 -4,-8 c -3.277,-6.0809 -6.4998,-5.4487 -9,-4 -2.8939,1.9302 -3.9722,3.9231 -2,9 4.5397,11.1479 11.5112,24.4295 19,33 l 27,0 c 9.4886,-7.0305 17.1238,-40.4634 4,-42 -1.2036,0 -3.1309,0.193 -4,1 0,-4 -3.4906,-5.0249 -5,-5 -1.7317,0.029 -3.0004,1 -4,3 0,-4 -3.2624,-5 -5,-5 -1.9129,0 -4.1312,1.1936 -5,3 l 0,-21.00004 c 0,-3.324 -2.6766,-6 -6,-6 z" fill="#000000" stroke="none" marker="none" visibility="visible" display="inline" overflow="visible"/></g></svg>