<?xml version="1.0" encoding="utf-8"?>
<!-- Generator: Adobe Illustrator 19.1.0, SVG Export Plug-In . SVG Version: 6.00 Build 0)  -->
<svg version="1.1" id="Layer_1" xmlns="http://www.w3.org/2000/svg" xmlns:xlink="http://www.w3.org/1999/xlink" x="0px" y="0px"
	 viewBox="-305 297 200 200" style="enable-background:new -305 297 200 200;" xml:space="preserve">
<style type="text/css">
	.st0{fill:#FFFFFF;}
</style>
<path class="st0" d="M-203.1,355.3c1.1,0.6,1.8,1.7,1.8,3c0,0,0,0,0,0l-2.2,0.4l0.7,2.2c-0.5,0.4-1.2,0.6-1.9,0.6
	c-0.8,0-1.5-0.3-2.1-0.8l0.7-2.1l-1.9-0.4c0,0,0,0,0-0.1c0-1.2,0.7-2.3,1.7-2.8l1.5,1.7L-203.1,355.3z M-204.2,298.7l-2.4,4.3
	l-3.3,48c-1.9,1.4-3.2,3.6-3.6,6l-0.3-0.1l-40.6,26.1l-2.6,4.2l4.9,0l43.3-21c0.3,0.1,0.6,0.3,0.9,0.4l-6.6,128.5c0,0,4,0.1,6.5,0.1
	v0c0.2,0,1.7,0,2.9,0c2.2,0.1,7.5,0.1,7.5,0.1l-4.2-128.5c0.3-0.1,0.7-0.2,1-0.4l42.8,21.8l4.9,0.1l-2.5-4.3l-40-26.8
	c-0.3-2.6-1.7-4.8-3.8-6.3l-2.4-47.8L-204.2,298.7z"/>
</svg>
